<?xml version="1.0" standalone="no"?><!DOCTYPE svg PUBLIC "-//W3C//DTD SVG 1.1//EN" "http://www.w3.org/Graphics/SVG/1.1/DTD/svg11.dtd"><svg t="1750303327261" class="icon" viewBox="0 0 1024 1024" version="1.1" xmlns="http://www.w3.org/2000/svg" p-id="9936" xmlns:xlink="http://www.w3.org/1999/xlink" width="128" height="128"><path d="M0 0m480 0l64 0q480 0 480 480l0 64q0 480-480 480l-64 0q-480 0-480-480l0-64q0-480 480-480Z" fill="#1296db" p-id="9937" data-spm-anchor-id="a313x.search_index.0.i1.7cb13a81e2X0Aa" class="selected"></path><path d="M704.096 320H320.64c-25.6 0-63.904 19.008-63.904 42.272v8.448s215.776 167.008 255.616 167.008S768 371.424 768 371.424v-9.152C768 339.04 728.896 320 704.096 320zM256 423.584v250.816S280.064 704 319.904 704H703.36c38.368 0 63.904-29.6 63.904-29.6v-251.52s-181.92 150.08-255.616 150.08C438.72 572.96 256 423.584 256 423.584z" fill="#FFFFFF" p-id="9938"></path></svg>