<?xml version="1.0" standalone="no"?><!DOCTYPE svg PUBLIC "-//W3C//DTD SVG 1.1//EN" "http://www.w3.org/Graphics/SVG/1.1/DTD/svg11.dtd"><svg t="1749437796054" class="icon" viewBox="0 0 1024 1024" version="1.1" xmlns="http://www.w3.org/2000/svg" p-id="16580" xmlns:xlink="http://www.w3.org/1999/xlink" width="32" height="32"><path d="M512 0C229.218462 0 0 229.218462 0 512s229.218462 512 512 512 512-229.218462 512-512S794.781538 0 512 0z m222.129231 671.113846c-2.363077 1.575385-18.116923 2.363077-34.658462-37.809231h-3.150769c-10.24 28.356923-26.781538 53.563077-48.836923 74.043077 11.027692 2.363077 21.267692 6.301538 30.72 11.815385 17.329231 10.24 31.507692 27.569231 12.603077 47.261538-26.781538 27.569231-130.756923 37.809231-177.230769-10.24h-6.301539c-46.473846 48.049231-150.449231 37.809231-177.230769 10.24-18.904615-18.904615-4.726154-37.021538 12.603077-47.261538 9.452308-5.513846 19.692308-9.452308 30.72-11.815385-21.267692-20.48-37.021538-45.686154-47.261539-74.043077h-2.363077c-17.329231 40.96-32.295385 39.384615-34.658461 37.809231-11.815385-7.876923-20.48-51.987692-11.815385-89.009231 9.452308-32.295385 23.630769-62.227692 42.535385-89.796923 11.027692-17.329231 14.966154-37.809231 12.603077-58.28923-0.787692-18.116923 0.787692-36.233846 4.726154-53.563077C356.824615 283.569231 448.984615 220.553846 545.083077 238.670769c70.892308 13.390769 126.818462 69.316923 140.209231 140.996923 3.150769 17.329231 4.726154 35.446154 4.726154 53.563077-2.363077 20.48 1.575385 40.96 12.603076 58.289231 18.904615 27.569231 33.870769 58.289231 43.323077 90.584615 8.664615 37.021538 0 81.92-11.815384 89.009231z" fill="#4DAFEA" p-id="16581"></path></svg>