<?xml version="1.0" standalone="no"?><!DOCTYPE svg PUBLIC "-//W3C//DTD SVG 1.1//EN" "http://www.w3.org/Graphics/SVG/1.1/DTD/svg11.dtd"><svg height="500" node-id="1" sillyvg="true" template-height="500" template-width="500" version="1.1" viewBox="0 0 500 500" width="500" xmlns="http://www.w3.org/2000/svg" xmlns:xlink="http://www.w3.org/1999/xlink"><defs node-id="322"><clipPath id="SVGID_2_" node-id="116"><path d="M 217.40 345.60 L 124.80 343.90 L 124.90 313.60 L 124.60 294.40 L 123.90 273.40 L 122.40 248.80 L 122.30 240.30 L 122.60 234.60 L 123.30 228.80 L 124.40 223.00 L 127.80 212.10 L 131.70 203.60 L 134.90 198.30 L 138.20 194.00 L 141.50 190.30 L 148.60 184.30 L 155.40 180.30 L 161.20 178.00 L 167.70 176.70 L 169.60 177.00 L 169.50 177.20 L 198.20 193.50 L 200.60 198.50 L 212.80 220.10 L 216.80 229.20 L 218.40 236.00 L 219.20 246.00 L 218.90 251.30 L 217.70 257.70 L 216.30 261.90 L 214.30 266.20 L 211.90 270.20 L 208.70 274.10 L 204.80 278.10 L 217.40 345.60 Z" fill="#000000" fill-rule="nonzero" node-id="325" stroke="none" target-height="168.90001" target-width="96.899994" target-x="122.3" target-y="176.7"></path></clipPath><clipPath id="SVGID_4_" node-id="184"><path d="M 351.90 439.20 L 255.80 439.20 L 255.80 464.10 L 355.00 463.90 L 356.90 462.80 L 358.00 460.90 L 358.20 445.40 L 357.90 443.70 L 357.30 442.30 L 356.30 441.00 L 355.00 440.00 L 353.60 439.40 L 351.90 439.20 Z" fill="#000000" fill-rule="nonzero" node-id="329" stroke="none" target-height="24.899994" target-width="102.40001" target-x="255.8" target-y="439.2"></path></clipPath><clipPath id="SVGID_6_" node-id="211"><path d="M 377.90 406.90 L 454.20 406.90 L 454.20 425.00 L 370.90 425.00 L 369.30 424.70 L 368.10 423.80 L 367.20 422.60 L 366.90 421.00 L 367.10 416.00 L 368.40 412.40 L 369.50 410.90 L 372.30 408.40 L 375.90 407.10 L 377.90 406.90 Z" fill="#000000" fill-rule="nonzero" node-id="333" stroke="none" target-height="18.100006" target-width="87.30002" target-x="366.9" target-y="406.9"></path></clipPath><clipPath id="SVGID_8_" node-id="231"><path d="M 362.60 365.10 L 464.70 365.10 L 464.70 393.60 L 365.70 393.60 L 363.00 393.30 L 360.50 392.70 L 358.10 391.60 L 356.10 390.10 L 354.30 388.30 L 352.80 386.20 L 351.70 383.90 L 351.10 381.40 L 350.80 377.00 L 351.50 372.80 L 353.60 369.30 L 356.70 366.70 L 358.50 365.80 L 362.60 365.10 Z" fill="#000000" fill-rule="nonzero" node-id="337" stroke="none" target-height="28.5" target-width="113.900024" target-x="350.8" target-y="365.1"></path></clipPath></defs><g node-id="1031"><path d="M 334.20 155.30 L 31.50 155.30 L 29.00 155.50 L 26.70 156.20 L 24.50 157.20 L 22.60 158.60 L 19.60 162.10 L 18.60 164.30 L 17.90 166.60 L 17.70 169.10 L 17.70 403.00 L 17.90 405.50 L 18.60 407.80 L 19.60 410.00 L 21.00 411.90 L 24.50 414.90 L 26.70 415.90 L 29.00 416.60 L 31.50 416.80 L 334.10 416.80 L 336.60 416.60 L 338.90 415.90 L 341.10 414.90 L 343.00 413.50 L 346.00 410.00 L 347.00 407.80 L 347.70 405.50 L 347.90 403.00 L 347.90 169.20 L 347.70 166.70 L 347.10 164.30 L 346.10 162.20 L 344.70 160.20 L 343.10 158.60 L 341.20 157.20 L 339.00 156.20 L 336.70 155.50 L 334.20 155.30 Z" fill="#f2f5f4" fill-rule="nonzero" group-id="1" node-id="345" stroke="none" target-height="261.5" target-width="330.19998" target-x="17.7" target-y="155.3"></path><g node-id="1040"><path d="M 349.40 138.70 L 46.80 138.70 L 44.30 138.90 L 42.00 139.60 L 39.80 140.60 L 37.90 142.00 L 34.90 145.50 L 33.90 147.70 L 33.20 150.00 L 33.00 152.50 L 33.00 386.30 L 33.20 388.80 L 33.90 391.10 L 34.90 393.30 L 37.90 396.80 L 39.80 398.20 L 42.00 399.20 L 44.30 399.90 L 46.80 400.10 L 349.40 400.10 L 351.90 399.90 L 354.20 399.20 L 356.40 398.20 L 358.30 396.80 L 359.90 395.20 L 361.30 393.30 L 362.30 391.10 L 363.00 388.80 L 363.20 386.30 L 363.20 152.50 L 363.00 150.00 L 362.40 147.70 L 361.40 145.50 L 360.00 143.60 L 358.40 142.00 L 356.40 140.60 L 354.30 139.60 L 351.90 138.90 L 349.40 138.70 Z" fill="#ffffff" fill-rule="nonzero" group-id="1,10" node-id="349" stroke="#f2f5f4" stroke-linecap="butt" stroke-width="1" target-height="261.40002" target-width="330.2" target-x="33" target-y="138.7"></path><path d="M 349.40 144.50 L 46.80 144.50 L 44.30 144.70 L 42.00 145.40 L 39.80 146.40 L 37.90 147.80 L 34.90 151.30 L 33.90 153.50 L 33.20 155.80 L 33.00 169.00 L 363.30 169.00 L 363.10 155.80 L 362.40 153.50 L 361.40 151.30 L 358.40 147.80 L 356.40 146.40 L 354.30 145.40 L 351.90 144.70 L 349.40 144.50 Z" fill="#f2f5f4" fill-rule="nonzero" group-id="1,10" node-id="351" stroke="none" target-height="24.5" target-width="330.3" target-x="33" target-y="144.5"></path><path d="M 349.40 138.70 L 46.80 138.70 L 44.30 138.90 L 42.00 139.60 L 39.80 140.60 L 36.30 143.60 L 34.90 145.50 L 33.90 147.70 L 33.20 150.00 L 33.00 163.20 L 363.30 163.20 L 363.10 150.00 L 362.40 147.70 L 361.40 145.50 L 358.40 142.00 L 356.40 140.60 L 354.30 139.60 L 351.90 138.90 L 349.40 138.70 Z" fill="#ffffff" fill-rule="nonzero" group-id="1,10" node-id="353" stroke="none" target-height="24.5" target-width="330.3" target-x="33" target-y="138.7"></path><path d="M 54.20 151.00 L 53.90 152.60 L 53.00 154.00 L 51.60 154.90 L 50.00 155.20 L 48.40 154.90 L 47.00 154.00 L 46.10 152.60 L 45.80 151.00 L 46.10 149.40 L 47.00 148.00 L 48.40 147.10 L 50.00 146.80 L 51.60 147.10 L 53.00 148.00 L 53.90 149.40 L 54.20 151.00 Z" fill="#d57548" fill-rule="nonzero" group-id="1,10" node-id="355" stroke="none" target-height="8.399994" target-width="8.400002" target-x="45.8" target-y="146.8"></path><path d="M 70.80 151.00 L 70.50 152.60 L 69.60 154.00 L 68.20 154.90 L 66.60 155.20 L 65.00 154.90 L 63.60 154.00 L 62.70 152.60 L 62.40 151.00 L 62.70 149.40 L 63.60 148.00 L 65.00 147.10 L 66.60 146.80 L 68.20 147.10 L 69.60 148.00 L 70.50 149.40 L 70.80 151.00 Z" fill="#ffb72f" fill-rule="nonzero" group-id="1,10" node-id="357" stroke="none" target-height="8.399994" target-width="8.400002" target-x="62.4" target-y="146.8"></path><path d="M 87.40 151.00 L 87.10 152.60 L 86.20 154.00 L 84.80 154.90 L 83.20 155.20 L 81.60 154.90 L 80.20 154.00 L 79.30 152.60 L 79.00 151.00 L 79.30 149.40 L 80.20 148.00 L 81.60 147.10 L 83.20 146.80 L 84.80 147.10 L 86.20 148.00 L 87.10 149.40 L 87.40 151.00 Z" fill="#aabc95" fill-rule="nonzero" group-id="1,10" node-id="359" stroke="none" target-height="8.399994" target-width="8.400002" target-x="79" target-y="146.8"></path></g><g node-id="1041"><path d="M 262.60 184.40 L 326.30 184.40" fill="none" group-id="1,11" node-id="364" stroke="#f2f5f4" stroke-linecap="round" stroke-width="5" target-height="0" target-width="63.69998" target-x="262.6" target-y="184.4"></path><path d="M 262.60 196.70 L 326.30 196.70" fill="none" group-id="1,11" node-id="366" stroke="#f2f5f4" stroke-linecap="round" stroke-width="5" target-height="0" target-width="63.69998" target-x="262.6" target-y="196.7"></path><path d="M 262.60 209.10 L 326.30 209.10" fill="none" group-id="1,11" node-id="368" stroke="#f2f5f4" stroke-linecap="round" stroke-width="5" target-height="0" target-width="63.69998" target-x="262.6" target-y="209.1"></path><path d="M 262.60 221.40 L 326.30 221.40" fill="none" group-id="1,11" node-id="370" stroke="#f2f5f4" stroke-linecap="round" stroke-width="5" target-height="0" target-width="63.69998" target-x="262.6" target-y="221.4"></path><path d="M 262.60 233.80 L 326.30 233.80" fill="none" group-id="1,11" node-id="372" stroke="#f2f5f4" stroke-linecap="round" stroke-width="5" target-height="0" target-width="63.69998" target-x="262.6" target-y="233.8"></path><path d="M 57.70 258.50 L 326.30 258.50" fill="none" group-id="1,11" node-id="374" stroke="#f2f5f4" stroke-linecap="round" stroke-width="5" target-height="0" target-width="268.59998" target-x="57.7" target-y="258.5"></path><path d="M 57.70 270.80 L 326.30 270.80" fill="none" group-id="1,11" node-id="376" stroke="#f2f5f4" stroke-linecap="round" stroke-width="5" target-height="0" target-width="268.59998" target-x="57.7" target-y="270.8"></path><path d="M 57.70 283.20 L 326.30 283.20" fill="none" group-id="1,11" node-id="378" stroke="#f2f5f4" stroke-linecap="round" stroke-width="5" target-height="0" target-width="268.59998" target-x="57.7" target-y="283.2"></path><path d="M 57.70 295.50 L 326.30 295.50" fill="none" group-id="1,11" node-id="380" stroke="#f2f5f4" stroke-linecap="round" stroke-width="5" target-height="0" target-width="268.59998" target-x="57.7" target-y="295.5"></path><path d="M 57.70 307.90 L 326.30 307.90" fill="none" group-id="1,11" node-id="382" stroke="#f2f5f4" stroke-linecap="round" stroke-width="5" target-height="0" target-width="268.59998" target-x="57.7" target-y="307.9"></path><path d="M 171.50 327.80 L 267.50 327.80" fill="none" group-id="1,11" node-id="384" stroke="#f2f5f4" stroke-linecap="round" stroke-width="5" target-height="0" target-width="96" target-x="171.5" target-y="327.8"></path><path d="M 171.50 340.20 L 267.50 340.20" fill="none" group-id="1,11" node-id="386" stroke="#f2f5f4" stroke-linecap="round" stroke-width="5" target-height="0" target-width="96" target-x="171.5" target-y="340.2"></path><path d="M 171.50 352.50 L 267.50 352.50" fill="none" group-id="1,11" node-id="388" stroke="#f2f5f4" stroke-linecap="round" stroke-width="5" target-height="0" target-width="96" target-x="171.5" target-y="352.5"></path><path d="M 171.50 364.90 L 238.60 364.90" fill="none" group-id="1,11" node-id="390" stroke="#f2f5f4" stroke-linecap="round" stroke-width="5" target-height="0" target-width="67.100006" target-x="171.5" target-y="364.9"></path><path d="M 171.50 377.20 L 238.60 377.20" fill="none" group-id="1,11" node-id="392" stroke="#f2f5f4" stroke-linecap="round" stroke-width="5" target-height="0" target-width="67.100006" target-x="171.5" target-y="377.2"></path><g node-id="1064"><path d="M 252.70 210.80 L 252.40 215.30 L 251.50 219.60 L 250.10 223.80 L 248.20 227.70 L 245.70 231.40 L 242.80 234.80 L 239.40 237.70 L 235.70 240.20 L 231.80 242.10 L 227.60 243.50 L 223.30 244.40 L 218.80 244.70 L 214.30 244.40 L 210.00 243.50 L 205.80 242.10 L 201.90 240.20 L 198.20 237.70 L 194.80 234.80 L 191.90 231.40 L 189.40 227.70 L 187.50 223.80 L 186.10 219.60 L 185.20 215.30 L 184.90 210.80 L 185.20 206.30 L 186.10 202.00 L 187.50 197.80 L 189.40 193.90 L 191.90 190.20 L 194.80 186.80 L 198.20 183.90 L 201.90 181.40 L 205.80 179.50 L 210.00 178.10 L 214.30 177.20 L 218.80 176.90 L 223.30 177.20 L 227.60 178.10 L 231.80 179.50 L 235.70 181.40 L 239.40 183.90 L 242.80 186.80 L 245.70 190.20 L 248.20 193.90 L 250.10 197.80 L 251.50 202.00 L 252.40 206.30 L 252.70 210.80 Z" fill="none" group-id="1,11,34" node-id="396" stroke="#f2f5f4" stroke-linecap="round" stroke-width="5" target-height="67.8" target-width="67.8" target-x="184.9" target-y="176.9"></path><path d="M 218.80 176.90 L 218.80 210.80 L 243.70 233.80" fill="none" group-id="1,11,34" node-id="398" stroke="#f2f5f4" stroke-linecap="round" stroke-width="5" target-height="56.90001" target-width="24.899994" target-x="218.8" target-y="176.9"></path></g><g node-id="1065"><path d="M 124.20 353.70 L 123.90 358.40 L 123.00 362.70 L 121.50 366.90 L 119.60 370.80 L 117.10 374.40 L 114.30 377.70 L 111.00 380.50 L 107.40 383.00 L 103.50 384.90 L 99.30 386.40 L 95.00 387.30 L 90.30 387.60 L 85.60 387.30 L 81.30 386.40 L 77.10 384.90 L 73.20 383.00 L 69.60 380.50 L 66.30 377.70 L 63.50 374.40 L 61.00 370.80 L 59.10 366.90 L 57.60 362.70 L 56.70 358.40 L 56.40 353.70 L 56.70 349.00 L 57.60 344.70 L 59.10 340.50 L 61.00 336.60 L 63.50 333.00 L 66.30 329.70 L 69.60 326.90 L 73.20 324.40 L 77.10 322.50 L 81.30 321.00 L 85.60 320.10 L 90.30 319.80 L 95.00 320.10 L 99.30 321.00 L 103.50 322.50 L 107.40 324.40 L 111.00 326.90 L 114.30 329.70 L 117.10 333.00 L 119.60 336.60 L 121.50 340.50 L 123.00 344.70 L 123.90 349.00 L 124.20 353.70 Z" fill="none" group-id="1,11,35" node-id="403" stroke="#f2f5f4" stroke-linecap="round" stroke-width="5" target-height="67.80002" target-width="67.799995" target-x="56.4" target-y="319.8"></path><path d="M 90.30 319.80 L 90.30 353.70 L 115.20 376.70" fill="none" group-id="1,11,35" node-id="405" stroke="#f2f5f4" stroke-linecap="round" stroke-width="5" target-height="56.900024" target-width="24.899994" target-x="90.3" target-y="319.8"></path></g><path d="M 277.30 324.20 L 338.40 324.20 L 338.40 378.40 L 277.30 378.40 Z" fill="none" group-id="1,11" node-id="408" stroke="#f2f5f4" stroke-linecap="round" stroke-width="5" target-height="54.19998" target-width="61.100006" target-x="277.3" target-y="324.2"></path><path d="M 56.50 183.70 L 112.10 237.90 L 56.50 237.90 Z" fill="none" group-id="1,11" node-id="410" stroke="#f2f5f4" stroke-linecap="round" stroke-width="5" target-height="54.199997" target-width="55.6" target-x="56.5" target-y="183.7"></path></g></g><g node-id="1032"><g node-id="1042"><g node-id="1066"><path d="M 453.80 132.30 L 323.30 132.30 L 320.80 132.50 L 318.50 133.20 L 316.30 134.20 L 314.40 135.60 L 311.40 139.10 L 310.40 141.30 L 309.70 143.60 L 309.50 146.10 L 309.50 223.50 L 309.70 226.00 L 310.40 228.30 L 311.40 230.50 L 312.80 232.40 L 316.30 235.40 L 318.50 236.40 L 320.80 237.10 L 323.30 237.30 L 453.80 237.30 L 456.30 237.10 L 458.60 236.40 L 460.80 235.40 L 462.70 234.00 L 465.70 230.50 L 466.70 228.30 L 467.40 226.00 L 467.60 223.50 L 467.40 143.60 L 466.80 141.30 L 465.80 139.10 L 464.40 137.20 L 462.80 135.60 L 460.80 134.20 L 458.70 133.20 L 456.30 132.50 L 453.80 132.30 Z" fill="#f2f5f4" fill-rule="nonzero" group-id="2,12,36" node-id="420" stroke="none" target-height="105" target-width="158.1" target-x="309.5" target-y="132.3"></path><g node-id="1084"><path d="M 466.10 121.70 L 335.60 121.70 L 333.10 121.90 L 330.80 122.60 L 328.60 123.60 L 326.70 125.00 L 323.70 128.50 L 322.70 130.70 L 322.00 133.00 L 321.80 135.50 L 321.80 212.90 L 322.00 215.40 L 322.70 217.70 L 323.70 219.90 L 325.10 221.80 L 328.60 224.80 L 330.80 225.80 L 333.10 226.50 L 335.60 226.70 L 466.10 226.70 L 468.60 226.50 L 470.90 225.80 L 473.10 224.80 L 475.00 223.40 L 478.00 219.90 L 479.00 217.70 L 479.70 215.40 L 479.90 212.90 L 479.90 135.50 L 479.70 133.00 L 479.00 130.70 L 478.00 128.50 L 475.00 125.00 L 473.10 123.60 L 471.00 122.60 L 468.60 121.90 L 466.10 121.70 Z" fill="#ffffff" fill-rule="nonzero" group-id="2,12,36,54" node-id="424" stroke="#f1f1f3" stroke-linecap="butt" stroke-width="1" target-height="105" target-width="158.1" target-x="321.8" target-y="121.7"></path><path d="M 466.10 127.50 L 335.60 127.50 L 333.10 127.70 L 330.80 128.40 L 328.60 129.40 L 326.70 130.80 L 323.70 134.30 L 322.70 136.50 L 322.00 138.80 L 321.80 141.30 L 321.80 152.00 L 480.00 152.00 L 480.00 141.30 L 479.70 138.80 L 479.10 136.50 L 478.10 134.30 L 476.70 132.40 L 473.10 129.40 L 471.00 128.40 L 468.60 127.70 L 466.10 127.50 Z" fill="#f2f5f4" fill-rule="nonzero" group-id="2,12,36,54" node-id="426" stroke="none" target-height="24.5" target-width="158.20001" target-x="321.8" target-y="127.5"></path><path d="M 466.10 121.70 L 335.60 121.70 L 333.10 121.90 L 330.80 122.60 L 328.60 123.60 L 326.70 125.00 L 323.70 128.50 L 322.70 130.70 L 322.00 133.00 L 321.80 135.50 L 321.80 146.20 L 480.00 146.20 L 480.00 135.50 L 479.70 133.00 L 479.10 130.70 L 478.10 128.50 L 476.70 126.60 L 473.10 123.60 L 471.00 122.60 L 468.60 121.90 L 466.10 121.70 Z" fill="#ffffff" fill-rule="nonzero" group-id="2,12,36,54" node-id="428" stroke="#f1f1f3" stroke-linecap="butt" stroke-width="1" target-height="24.5" target-width="158.20001" target-x="321.8" target-y="121.7"></path><g node-id="1100"><path d="M 390.70 133.90 L 411.90 133.90" fill="none" group-id="2,12,36,54,70" node-id="432" stroke="#e3e9e7" stroke-linecap="round" stroke-width="5" target-height="0" target-width="21.199982" target-x="390.7" target-y="133.9"></path><path d="M 421.80 133.90 L 464.90 133.90" fill="none" group-id="2,12,36,54,70" node-id="434" stroke="#e3e9e7" stroke-linecap="round" stroke-width="5" target-height="0" target-width="43.100006" target-x="421.8" target-y="133.9"></path></g><path d="M 343.00 133.90 L 342.70 135.50 L 341.80 136.90 L 340.40 137.80 L 338.80 138.10 L 337.20 137.80 L 335.80 136.90 L 334.90 135.50 L 334.60 133.90 L 334.90 132.30 L 335.80 130.90 L 337.20 130.00 L 338.80 129.70 L 340.40 130.00 L 341.80 130.90 L 342.70 132.30 L 343.00 133.90 Z" fill="#d57548" fill-rule="nonzero" group-id="2,12,36,54" node-id="437" stroke="none" target-height="8.400009" target-width="8.399994" target-x="334.6" target-y="129.7"></path><path d="M 359.60 133.90 L 359.30 135.50 L 358.40 136.90 L 357.00 137.80 L 355.40 138.10 L 353.80 137.80 L 352.40 136.90 L 351.50 135.50 L 351.20 133.90 L 351.50 132.30 L 352.40 130.90 L 353.80 130.00 L 355.40 129.70 L 357.00 130.00 L 358.40 130.90 L 359.30 132.30 L 359.60 133.90 Z" fill="#ffb72f" fill-rule="nonzero" group-id="2,12,36,54" node-id="439" stroke="none" target-height="8.400009" target-width="8.399994" target-x="351.2" target-y="129.7"></path><path d="M 376.20 133.90 L 375.90 135.50 L 375.00 136.90 L 373.60 137.80 L 372.00 138.10 L 370.40 137.80 L 369.00 136.90 L 368.10 135.50 L 367.80 133.90 L 368.10 132.30 L 369.00 130.90 L 370.40 130.00 L 372.00 129.70 L 373.60 130.00 L 375.00 130.90 L 375.90 132.30 L 376.20 133.90 Z" fill="#aabc95" fill-rule="nonzero" group-id="2,12,36,54" node-id="441" stroke="none" target-height="8.400009" target-width="8.400024" target-x="367.8" target-y="129.7"></path></g></g></g><g node-id="1043"><path d="M 344.60 201.10 L 351.30 194.80 L 357.50 190.60 L 361.80 188.60 L 365.90 187.30 L 369.80 186.60 L 373.70 186.40 L 377.50 186.60 L 381.00 187.20 L 384.50 188.10 L 390.60 190.60 L 398.20 195.30 L 404.80 201.10 L 411.70 194.50 L 418.00 190.30 L 422.40 188.20 L 426.50 186.80 L 430.40 186.10 L 434.40 185.80 L 438.10 186.00 L 441.60 186.70 L 445.10 187.60 L 451.20 190.30 L 458.50 195.10 L 465.00 201.10" fill="none" group-id="2,13" node-id="448" stroke="#eaa105" stroke-linecap="butt" stroke-width="1" target-height="15.300003" target-width="120.399994" target-x="344.6" target-y="185.8"></path><g node-id="1067"><path d="M 344.60 201.10 L 464.90 201.10" fill="none" group-id="2,13,37" node-id="452" stroke="#450000" stroke-linecap="butt" stroke-width="1" target-height="0" target-width="120.29999" target-x="344.6" target-y="201.1"></path><path d="M 464.90 194.70 L 464.90 204.80" fill="none" group-id="2,13,37" node-id="454" stroke="#450000" stroke-linecap="butt" stroke-width="1" target-height="10.100006" target-width="0" target-x="464.9" target-y="194.7"></path><path d="M 344.60 194.70 L 344.60 204.80" fill="none" group-id="2,13,37" node-id="456" stroke="#450000" stroke-linecap="butt" stroke-width="1" target-height="10.100006" target-width="0" target-x="344.6" target-y="194.7"></path></g><path d="M 466.20 184.70 L 463.00 184.80 L 462.10 185.70 L 462.00 188.90 L 462.10 189.50 L 463.00 190.40 L 466.20 190.50 L 466.80 190.40 L 467.70 189.50 L 467.70 185.70 L 466.80 184.80 L 466.20 184.70 Z" fill="none" group-id="2,13" node-id="459" stroke="#450000" stroke-linecap="butt" stroke-width="1" target-height="5.800003" target-width="5.700012" target-x="462" target-y="184.7"></path><path d="M 345.90 184.70 L 342.70 184.80 L 341.80 185.70 L 341.70 188.90 L 341.80 189.50 L 342.70 190.40 L 345.90 190.50 L 346.50 190.40 L 347.40 189.50 L 347.40 185.70 L 346.50 184.80 L 345.90 184.70 Z" fill="none" group-id="2,13" node-id="461" stroke="#450000" stroke-linecap="butt" stroke-width="1" target-height="5.800003" target-width="5.6999817" target-x="341.7" target-y="184.7"></path><path d="M 406.10 205.40 L 402.90 205.50 L 402.00 206.40 L 402.00 210.20 L 402.90 211.10 L 403.50 211.20 L 406.70 211.10 L 407.60 210.20 L 407.60 206.40 L 406.70 205.50 L 406.10 205.40 Z" fill="none" group-id="2,13" node-id="463" stroke="#450000" stroke-linecap="butt" stroke-width="1" target-height="5.800003" target-width="5.600006" target-x="402" target-y="205.4"></path><path d="M 413.60 208.30 L 413.30 210.70 L 412.40 212.70 L 411.00 214.50 L 409.20 215.90 L 407.20 216.80 L 404.80 217.10 L 402.40 216.80 L 400.40 215.90 L 398.60 214.50 L 397.20 212.70 L 396.30 210.70 L 396.00 208.30 L 396.30 205.90 L 397.20 203.90 L 398.60 202.10 L 400.40 200.70 L 402.40 199.80 L 404.80 199.50 L 407.20 199.80 L 409.20 200.70 L 411.00 202.10 L 412.40 203.90 L 413.30 205.90 L 413.60 208.30 Z" fill="none" group-id="2,13" node-id="465" stroke="#c43f00" stroke-linecap="butt" stroke-width="1" target-height="17.600006" target-width="17.600006" target-x="396" target-y="199.5"></path><g node-id="1068"><g node-id="1085"><path d="M 346.90 175.50 L 345.70 173.60 L 344.10 175.90 L 343.00 176.10 L 341.90 175.50 L 342.00 174.20 L 343.90 171.50 L 342.10 168.90 L 342.00 167.70 L 343.10 167.00 L 344.20 167.10 L 345.80 169.30 L 347.40 167.20 L 349.00 167.30 L 349.50 168.40 L 349.30 169.00 L 347.50 171.50 L 349.50 174.30 L 349.60 175.50 L 349.20 176.00 L 347.90 176.20 L 346.90 175.50 Z" fill="#aabc95" fill-rule="nonzero" group-id="2,13,38,55" node-id="471" stroke="none" target-height="9.199997" target-width="7.700012" target-x="341.9" target-y="167"></path></g><g node-id="1086"><path d="M 368.80 172.70 L 368.80 174.80 L 368.50 175.70 L 367.60 176.00 L 366.10 175.70 L 365.80 174.80 L 365.80 172.70 L 363.40 168.80 L 363.40 167.60 L 364.40 167.00 L 365.50 167.10 L 367.40 170.20 L 369.30 167.10 L 370.70 167.20 L 371.30 168.20 L 371.10 168.80 L 368.80 172.70 Z" fill="#aabc95" fill-rule="nonzero" group-id="2,13,38,56" node-id="476" stroke="none" target-height="9" target-width="7.899994" target-x="363.4" target-y="167"></path></g><g node-id="1087"><path d="M 390.00 174.80 L 389.70 175.70 L 388.80 176.00 L 383.10 176.00 L 382.50 175.90 L 381.80 175.20 L 382.00 173.80 L 385.90 169.30 L 383.10 169.30 L 382.20 169.00 L 382.00 167.60 L 383.10 166.90 L 388.50 166.90 L 389.50 167.30 L 389.80 168.70 L 385.70 173.60 L 389.30 173.70 L 390.00 174.80 Z" fill="#aabc95" fill-rule="nonzero" group-id="2,13,38,57" node-id="481" stroke="none" target-height="9.100006" target-width="8.200012" target-x="381.8" target-y="166.9"></path></g><g node-id="1088"><g node-id="1101"><path d="M 360.10 170.80 L 355.00 170.80 L 354.40 170.50 L 354.10 169.90 L 354.40 168.60 L 355.00 168.30 L 360.10 168.30 L 360.70 168.60 L 361.00 169.20 L 360.70 170.50 L 360.10 170.80 Z" fill="#aabc95" fill-rule="nonzero" group-id="2,13,38,58,71" node-id="488" stroke="none" target-height="2.5" target-width="6.899994" target-x="354.1" target-y="168.3"></path></g><path d="M 360.10 175.00 L 355.00 175.00 L 354.40 174.70 L 354.10 174.10 L 354.40 172.80 L 355.00 172.50 L 360.10 172.50 L 360.70 172.80 L 361.00 173.40 L 360.70 174.70 L 360.10 175.00 Z" fill="#aabc95" fill-rule="nonzero" group-id="2,13,38,58,72" node-id="493" stroke="none" target-height="2.5" target-width="6.899994" target-x="354.1" target-y="172.5"></path></g><g node-id="1089"><g node-id="1103"><path d="M 377.70 174.40 L 374.10 170.80 L 373.80 170.20 L 374.10 169.50 L 375.20 168.70 L 375.90 169.00 L 379.50 172.60 L 379.80 173.30 L 379.00 174.40 L 378.40 174.60 L 377.70 174.40 Z" fill="#aabc95" fill-rule="nonzero" group-id="2,13,38,59,73" node-id="501" stroke="none" target-height="5.900009" target-width="6" target-x="373.8" target-y="168.7"></path></g><path d="M 374.10 172.60 L 377.70 169.00 L 378.40 168.70 L 379.50 169.50 L 379.80 170.20 L 379.50 170.80 L 375.90 174.40 L 375.20 174.70 L 374.10 173.90 L 373.80 173.20 L 374.10 172.60 Z" fill="#aabc95" fill-rule="nonzero" group-id="2,13,38,59,74" node-id="506" stroke="none" target-height="6" target-width="6" target-x="373.8" target-y="168.7"></path></g></g><g node-id="1069"><path d="M 400.90 167.20 L 464.90 167.20" fill="none" group-id="2,13,39" node-id="513" stroke="#e3e9e7" stroke-linecap="round" stroke-width="5" target-height="0" target-width="64" target-x="400.9" target-y="167.2"></path><path d="M 400.90 177.00 L 432.90 177.00" fill="none" group-id="2,13,39" node-id="515" stroke="#e3e9e7" stroke-linecap="round" stroke-width="5" target-height="0" target-width="32" target-x="400.9" target-y="177"></path></g></g></g><g node-id="1033"><path d="M 221.90 367.40 L 108.40 367.40 L 104.60 366.80 L 101.50 365.80 L 98.90 364.60 L 96.80 363.10 L 95.00 361.30 L 93.70 359.30 L 92.70 357.20 L 92.20 354.80 L 92.30 349.80 L 94.10 344.10 L 96.10 340.60 L 98.80 336.90 L 102.30 333.20 L 106.30 329.90 L 111.00 326.80 L 118.60 322.90 L 211.00 319.30 L 216.00 322.30 L 220.60 325.50 L 224.80 329.00 L 228.80 332.80 L 234.30 339.50 L 237.10 345.00 L 238.00 347.80 L 238.20 350.60 L 238.00 353.30 L 236.60 357.10 L 235.20 359.00 L 233.40 360.90 L 230.70 363.10 L 226.90 365.30 L 221.90 367.40 Z" fill="#c43f00" fill-rule="nonzero" group-id="3" node-id="522" stroke="none" target-height="48.100006" target-width="146" target-x="92.2" target-y="319.3"></path><path d="M 101.80 400.20 L 233.70 400.20 L 231.30 389.10 L 228.80 379.30 L 223.20 362.30 L 217.90 349.40 L 214.00 341.30 L 208.50 331.90 L 128.00 327.10 L 124.40 331.10 L 121.10 335.30 L 118.10 340.00 L 113.10 349.80 L 111.00 355.00 L 108.30 363.00 L 106.20 370.90 L 104.50 378.90 L 103.30 386.40 L 101.80 400.20 Z" fill="#000000" fill-rule="nonzero" group-id="3" node-id="524" stroke="none" target-height="73.100006" target-width="131.9" target-x="101.8" target-y="327.1"></path><path d="M 272.50 302.00 L 271.90 305.10 L 269.80 310.40 L 268.20 312.70 L 265.80 315.50 L 263.00 317.90 L 259.90 319.90 L 256.50 321.50 L 253.00 322.60 L 249.30 323.30 L 245.60 323.60 L 242.00 323.40 L 238.60 322.70 L 235.20 321.50 L 232.30 319.80 L 229.60 317.60 L 226.40 313.40 L 224.30 307.90 L 223.80 304.90 L 223.70 301.50 L 223.90 297.60 L 224.70 293.10 L 272.50 302.00 Z" fill="#b22900" fill-rule="nonzero" group-id="3" node-id="526" stroke="none" target-height="30.5" target-width="48.800003" target-x="223.7" target-y="293.1"></path><path d="M 268.20 289.90 L 234.80 320.70 L 228.50 313.20 L 219.70 301.10 L 204.20 277.70 L 193.80 260.50 L 184.70 243.60 L 181.00 235.90 L 178.00 228.50 L 176.00 222.30 L 175.40 219.30 L 175.20 216.30 L 175.80 210.60 L 177.00 206.90 L 178.80 203.50 L 181.10 200.40 L 185.40 196.60 L 188.00 195.10 L 190.80 193.90 L 194.50 192.90 L 198.10 192.50 L 201.80 192.70 L 205.30 193.50 L 209.00 194.90 L 212.40 196.90 L 214.40 198.60 L 218.00 202.60 L 268.20 289.90 Z" fill="#b22900" fill-rule="nonzero" group-id="3" node-id="528" stroke="none" target-height="128.20001" target-width="93.000015" target-x="175.2" target-y="192.5"></path><g node-id="1044"><path d="M 313.20 227.50 L 305.00 233.30 L 303.60 233.90 L 302.20 233.90 L 300.80 233.40 L 299.60 232.40 L 294.70 225.50 L 294.10 224.10 L 294.10 222.70 L 294.60 221.30 L 295.60 220.10 L 303.80 214.30 L 305.20 213.70 L 306.70 213.70 L 308.00 214.20 L 309.20 215.20 L 314.10 222.10 L 314.80 223.60 L 314.80 225.00 L 314.30 226.40 L 313.20 227.50 Z" fill="#450000" fill-rule="nonzero" group-id="3,14" node-id="532" stroke="none" target-height="20.199997" target-width="20.699982" target-x="294.1" target-y="213.7"></path><path d="M 330.90 220.70 L 328.70 222.50 L 326.30 225.00 L 323.70 228.60 L 320.10 234.40 L 303.40 266.60 L 298.40 275.30 L 294.80 281.10 L 287.00 291.80 L 282.70 296.70 L 278.10 301.20 L 273.30 305.20 L 270.70 306.90 L 265.00 309.20 L 262.00 309.80 L 256.10 309.90 L 252.20 309.10 L 248.50 307.80 L 245.00 305.90 L 241.90 303.40 L 239.20 300.60 L 236.90 297.20 L 235.50 294.50 L 234.60 291.60 L 233.90 288.40 L 233.70 285.00 L 306.50 218.40 L 330.90 220.70 Z" fill="#efbfa9" fill-rule="nonzero" group-id="3,14" node-id="534" stroke="none" target-height="91.5" target-width="97.2" target-x="233.7" target-y="218.4"></path><path d="M 267.90 308.20 L 264.90 309.20 L 258.90 310.00 L 256.00 309.90 L 252.10 309.10 L 248.40 307.80 L 244.90 305.90 L 241.80 303.40 L 239.10 300.60 L 236.80 297.20 L 235.40 294.50 L 234.50 291.60 L 233.80 288.40 L 233.60 285.00 L 256.00 264.50 L 251.50 274.80 L 249.10 283.40 L 248.60 287.80 L 248.50 291.70 L 248.90 295.10 L 249.60 298.10 L 250.80 301.00 L 252.20 303.40 L 254.10 305.30 L 256.20 306.80 L 258.60 307.90 L 261.30 308.50 L 264.40 308.60 L 267.90 308.20 Z" fill="#ecb298" fill-rule="nonzero" group-id="3,14" node-id="536" stroke="none" target-height="45.5" target-width="34.299988" target-x="233.6" target-y="264.5"></path><g node-id="1070"><path d="M 306.50 218.50 L 300.90 232.10 L 305.80 234.30 L 310.40 235.80 L 318.90 237.40 L 326.60 237.40 L 332.10 236.70 L 337.10 235.70 L 349.80 231.90 L 353.10 231.20 L 339.00 202.50 L 306.50 218.50 Z" fill="#efbfa9" fill-rule="nonzero" group-id="3,14,40" node-id="540" stroke="none" target-height="34.899994" target-width="52.200012" target-x="300.9" target-y="202.5"></path><path d="M 347.60 215.50 L 345.90 217.20 L 345.40 218.50 L 345.40 221.00 L 346.50 223.10 L 356.80 231.10 L 358.00 231.40 L 359.70 231.30 L 361.30 230.70 L 362.70 229.40 L 363.40 227.80 L 363.60 226.10 L 363.10 224.40 L 362.10 223.00 L 353.50 215.90 L 351.90 215.00 L 350.50 214.70 L 349.00 214.90 L 347.60 215.50 Z" fill="#efbfa9" fill-rule="nonzero" group-id="3,14,40" node-id="542" stroke="none" target-height="16.699997" target-width="18.200012" target-x="345.4" target-y="214.7"></path><path d="M 380.80 202.60 L 380.50 200.30 L 379.10 198.50 L 378.10 198.00 L 355.50 196.10 L 334.50 202.20 L 338.10 220.30 L 361.30 206.60 L 376.90 206.10 L 378.30 205.80 L 379.50 205.10 L 380.30 204.00 L 380.80 202.60 Z" fill="#efbfa9" fill-rule="nonzero" group-id="3,14,40" node-id="544" stroke="none" target-height="24.199997" target-width="46.299988" target-x="334.5" target-y="196.1"></path><path d="M 334.50 202.20 L 338.80 201.00 L 355.10 203.80 L 357.80 208.60 L 337.00 220.30 Z" fill="#e89076" fill-rule="nonzero" group-id="3,14,40" node-id="546" stroke="none" target-height="19.300003" target-width="23.299988" target-x="334.5" target-y="201"></path><path d="M 358.60 238.10 L 356.60 239.70 L 355.30 240.10 L 343.30 238.70 L 342.00 238.30 L 340.90 237.70 L 339.30 235.70 L 338.90 233.10 L 339.60 230.90 L 340.90 229.40 L 343.40 228.50 L 356.50 230.60 L 358.30 231.90 L 359.50 234.40 L 359.60 235.60 L 358.60 238.10 Z" fill="#efbfa9" fill-rule="nonzero" group-id="3,14,40" node-id="548" stroke="none" target-height="11.600006" target-width="20.700012" target-x="338.9" target-y="228.5"></path><path d="M 358.90 232.70 L 357.70 233.40 L 356.20 233.70 L 345.50 234.50 L 342.80 234.10 L 340.50 232.40 L 339.90 231.10 L 339.60 229.40 L 340.60 228.60 L 343.40 228.20 L 355.40 230.20 L 357.40 231.20 L 358.90 232.70 Z" fill="#e89076" fill-rule="nonzero" group-id="3,14,40" node-id="550" stroke="none" target-height="6.300003" target-width="19.299988" target-x="339.6" target-y="228.2"></path><path d="M 355.40 227.70 L 354.00 229.20 L 352.00 230.00 L 344.70 231.00 L 342.10 230.70 L 340.00 229.20 L 339.30 228.20 L 338.90 226.90 L 338.90 225.20 L 339.40 223.60 L 340.60 222.10 L 341.80 221.30 L 343.30 220.90 L 350.70 220.20 L 352.60 220.40 L 354.20 221.10 L 355.80 222.90 L 356.20 224.20 L 356.10 226.00 L 355.40 227.70 Z" fill="#e89076" fill-rule="nonzero" group-id="3,14,40" node-id="552" stroke="none" target-height="10.800003" target-width="17.300018" target-x="338.9" target-y="220.2"></path><path d="M 341.40 224.40 L 340.50 226.40 L 340.40 227.90 L 341.30 230.30 L 343.30 232.00 L 345.90 232.40 L 356.60 231.60 L 359.30 230.50 L 360.80 228.40 L 361.10 226.00 L 359.90 223.30 L 358.30 222.10 L 355.90 221.70 L 345.20 222.10 L 343.70 222.60 L 341.40 224.40 Z" fill="#efbfa9" fill-rule="nonzero" group-id="3,14,40" node-id="554" stroke="none" target-height="10.699997" target-width="20.700012" target-x="340.4" target-y="221.7"></path><path d="M 346.00 222.20 L 343.20 222.80 L 341.10 224.90 L 342.10 226.20 L 343.50 227.10 L 345.00 227.50 L 346.70 227.40 L 359.70 224.30 L 362.20 222.90 L 353.30 215.60 L 345.90 217.20 L 345.30 219.70 L 346.00 222.20 Z" fill="#e89076" fill-rule="nonzero" group-id="3,14,40" node-id="556" stroke="none" target-height="11.899994" target-width="21.100006" target-x="341.1" target-y="215.6"></path><path d="M 347.10 208.00 L 345.30 210.00 L 344.80 211.30 L 345.00 213.90 L 346.30 216.00 L 356.80 222.00 L 358.30 222.50 L 360.80 222.40 L 362.80 221.00 L 364.00 218.70 L 363.90 216.30 L 362.70 214.30 L 351.10 207.40 L 349.70 207.20 L 347.10 208.00 Z" fill="#efbfa9" fill-rule="nonzero" group-id="3,14,40" node-id="558" stroke="none" target-height="15.300003" target-width="19.200012" target-x="344.8" target-y="207.2"></path><path d="M 355.90 219.40 L 354.20 221.50 L 352.90 222.20 L 345.80 224.30 L 343.20 224.50 L 340.90 223.30 L 340.00 222.30 L 339.40 221.10 L 339.10 219.30 L 339.40 217.70 L 340.80 215.60 L 342.80 214.40 L 350.00 212.60 L 351.80 212.50 L 354.30 213.40 L 355.50 214.70 L 356.20 217.00 L 355.90 219.40 Z" fill="#e89076" fill-rule="nonzero" group-id="3,14,40" node-id="560" stroke="none" target-height="12" target-width="17.100006" target-x="339.1" target-y="212.5"></path><path d="M 361.00 220.60 L 359.70 222.20 L 357.70 223.20 L 345.80 225.70 L 343.40 225.00 L 341.60 223.20 L 341.10 222.00 L 341.00 220.30 L 341.50 218.30 L 342.90 216.60 L 345.00 215.60 L 355.50 213.50 L 357.30 213.50 L 359.00 214.10 L 360.70 215.80 L 361.50 217.90 L 361.60 218.80 L 361.00 220.60 Z" fill="#efbfa9" fill-rule="nonzero" group-id="3,14,40" node-id="562" stroke="none" target-height="12.199997" target-width="20.600006" target-x="341" target-y="213.5"></path><g node-id="1090"><g node-id="1105"><path d="M 312.50 221.10 L 336.30 207.40 L 352.70 210.70 L 346.90 218.90 L 340.10 219.60 L 338.30 222.30 L 335.10 225.70 L 332.90 227.20 L 329.40 228.60 L 325.40 228.80 L 320.60 227.40 L 318.20 226.00 L 315.60 224.00 L 312.50 221.10 Z" fill="#e89076" fill-rule="nonzero" group-id="3,14,40,60,75" node-id="568" stroke="none" target-height="21.40001" target-width="40.200012" target-x="312.5" target-y="207.4"></path><path d="M 352.70 210.60 L 356.80 219.40 L 357.20 220.90 L 356.90 222.30 L 356.20 223.60 L 355.00 224.50 L 353.70 224.90 L 352.40 224.80 L 351.20 224.20 L 350.20 223.30 L 347.00 218.80 L 352.70 210.60 Z" fill="#e89076" fill-rule="nonzero" group-id="3,14,40,60,75" node-id="570" stroke="none" target-height="14.299988" target-width="10.200012" target-x="347" target-y="210.6"></path></g><g node-id="1106"><path d="M 306.50 218.50 L 334.50 202.20 L 353.90 206.00 L 347.10 215.70 L 339.10 216.50 L 337.00 219.80 L 333.20 223.80 L 330.60 225.60 L 326.50 227.30 L 324.20 227.60 L 321.80 227.60 L 319.10 227.00 L 316.10 225.90 L 313.30 224.30 L 310.10 221.90 L 306.50 218.50 Z" fill="#efbfa9" fill-rule="nonzero" group-id="3,14,40,60,76" node-id="575" stroke="none" target-height="25.40001" target-width="47.399994" target-x="306.5" target-y="202.2"></path><path d="M 355.50 209.70 L 349.20 215.90 L 352.30 222.20 L 353.30 223.30 L 354.50 224.00 L 355.90 224.30 L 357.40 224.10 L 358.80 223.40 L 359.90 222.40 L 360.50 221.20 L 360.80 220.00 L 358.80 211.50 L 355.50 209.70 Z" fill="#e89076" fill-rule="nonzero" group-id="3,14,40,60,76" node-id="577" stroke="none" target-height="14.600006" target-width="11.599976" target-x="349.2" target-y="209.7"></path><path d="M 353.90 206.00 L 359.20 217.60 L 359.20 218.70 L 358.50 220.90 L 356.70 222.40 L 355.10 222.90 L 353.60 222.80 L 352.20 222.10 L 351.00 221.00 L 347.20 215.70 L 353.90 206.00 Z" fill="#efbfa9" fill-rule="nonzero" group-id="3,14,40,60,76" node-id="579" stroke="none" target-height="16.899994" target-width="12" target-x="347.2" target-y="206"></path></g></g></g><path d="M 306.00 217.90 L 319.80 238.70 L 315.40 245.70 L 298.40 223.90 Z" fill="#450000" fill-rule="nonzero" group-id="3,14" node-id="584" stroke="none" target-height="27.800003" target-width="21.399994" target-x="298.4" target-y="217.9"></path></g><path d="M 224.70 356.10 L 105.80 356.40 L 112.80 336.80 L 116.60 323.90 L 120.50 307.50 L 122.10 299.00 L 123.20 290.30 L 123.90 281.70 L 123.90 273.50 L 119.90 207.50 L 119.90 196.00 L 120.80 189.00 L 122.20 186.50 L 124.50 185.00 L 130.30 182.30 L 135.20 180.70 L 140.60 179.30 L 151.40 177.50 L 165.00 176.50 L 169.10 176.80 L 169.40 177.30 L 198.10 193.60 L 200.50 198.60 L 212.80 220.20 L 216.70 229.30 L 218.30 236.10 L 219.10 246.10 L 218.50 253.50 L 217.60 257.80 L 216.20 262.00 L 214.20 266.30 L 211.80 270.30 L 208.60 274.20 L 204.70 278.20 L 224.70 356.10 Z" fill="#c43f00" fill-rule="nonzero" group-id="3" node-id="587" stroke="none" target-height="179.9" target-width="118.899994" target-x="105.8" target-y="176.5"></path><path d="M 216.30 322.50 L 216.20 322.90 L 140.70 345.50 L 135.30 363.60 L 129.50 367.40 L 108.50 367.40 L 104.70 366.80 L 101.60 365.80 L 99.00 364.60 L 96.90 363.10 L 95.10 361.30 L 93.80 359.30 L 92.80 357.20 L 92.30 354.80 L 92.40 349.80 L 94.20 344.10 L 96.20 340.60 L 98.90 336.90 L 102.40 333.20 L 106.40 329.90 L 111.10 326.80 L 116.60 323.80 L 120.50 307.40 L 122.10 298.90 L 123.20 290.20 L 123.90 281.60 L 123.90 273.40 L 122.40 250.90 L 122.20 243.10 L 151.00 213.30 L 150.30 283.50 L 199.90 292.00 L 210.50 300.50 L 216.30 322.50 Z" fill="#b22900" fill-rule="nonzero" group-id="3" node-id="589" stroke="none" target-height="154.09999" target-width="124" target-x="92.3" target-y="213.3"></path><g node-id="1045"><g clip-path="url(#SVGID_2_)" group-id="3,15" node-id="593"><path d="M 170.70 254.50 L 154.30 280.10 L 137.90 254.50 L 154.30 229.00 Z" fill="none" group-id="3,15,41" node-id="595" stroke="#eaa105" stroke-linecap="butt" stroke-width="1" target-height="51.100006" target-width="32.800003" target-x="137.9" target-y="229"></path><path d="M 203.20 254.50 L 186.80 280.10 L 170.50 254.50 L 186.80 229.00 Z" fill="none" group-id="3,15,41" node-id="597" stroke="#eaa105" stroke-linecap="butt" stroke-width="1" target-height="51.100006" target-width="32.699997" target-x="170.5" target-y="229"></path><path d="M 235.70 254.50 L 219.40 280.10 L 203.00 254.50 L 219.40 229.00 Z" fill="none" group-id="3,15,41" node-id="599" stroke="#eaa105" stroke-linecap="butt" stroke-width="1" target-height="51.100006" target-width="32.699997" target-x="203" target-y="229"></path></g></g><g node-id="1046"><path d="M 238.90 106.00 L 238.60 109.50 L 237.70 112.70 L 236.30 115.60 L 234.40 118.30 L 232.10 120.60 L 229.40 122.50 L 226.50 123.90 L 223.30 124.80 L 219.80 125.10 L 216.30 124.80 L 213.10 123.90 L 210.20 122.50 L 207.50 120.60 L 205.20 118.30 L 203.30 115.60 L 201.90 112.70 L 201.00 109.50 L 200.70 106.00 L 201.00 102.50 L 201.90 99.30 L 203.30 96.40 L 205.20 93.70 L 207.50 91.40 L 210.20 89.50 L 213.10 88.10 L 216.30 87.20 L 219.80 86.90 L 223.30 87.20 L 226.50 88.10 L 229.40 89.50 L 232.10 91.40 L 234.40 93.70 L 236.30 96.40 L 237.70 99.30 L 238.60 102.50 L 238.90 106.00 Z" fill="#450000" fill-rule="nonzero" group-id="3,16" node-id="605" stroke="none" target-height="38.199997" target-width="38.199997" target-x="200.7" target-y="86.9"></path><path d="M 219.40 84.40 L 219.10 87.90 L 218.20 91.10 L 216.80 94.00 L 214.90 96.70 L 212.60 99.00 L 209.90 100.90 L 207.00 102.30 L 203.80 103.20 L 200.30 103.50 L 196.80 103.20 L 193.60 102.30 L 190.70 100.90 L 188.00 99.00 L 185.70 96.70 L 183.80 94.00 L 182.40 91.10 L 181.50 87.90 L 181.20 84.40 L 181.50 80.90 L 182.40 77.70 L 183.80 74.80 L 185.70 72.10 L 188.00 69.80 L 190.70 67.90 L 193.60 66.50 L 196.80 65.60 L 200.30 65.30 L 203.80 65.60 L 207.00 66.50 L 209.90 67.90 L 212.60 69.80 L 214.90 72.10 L 216.80 74.80 L 218.20 77.70 L 219.10 80.90 L 219.40 84.40 Z" fill="#450000" fill-rule="nonzero" group-id="3,16" node-id="607" stroke="none" target-height="38.199997" target-width="38.199997" target-x="181.2" target-y="65.3"></path><path d="M 194.40 91.40 L 194.10 94.90 L 193.20 98.10 L 191.80 101.00 L 189.90 103.70 L 187.60 106.00 L 184.90 107.90 L 182.00 109.30 L 178.80 110.20 L 175.30 110.50 L 171.80 110.20 L 168.60 109.30 L 165.70 107.90 L 163.00 106.00 L 160.70 103.70 L 158.80 101.00 L 157.40 98.10 L 156.50 94.90 L 156.20 91.40 L 156.50 87.90 L 157.40 84.70 L 158.80 81.80 L 160.70 79.10 L 163.00 76.80 L 165.70 74.90 L 168.60 73.50 L 171.80 72.60 L 175.30 72.30 L 178.80 72.60 L 182.00 73.50 L 184.90 74.90 L 187.60 76.80 L 189.90 79.10 L 191.80 81.80 L 193.20 84.70 L 194.10 87.90 L 194.40 91.40 Z" fill="#450000" fill-rule="nonzero" group-id="3,16" node-id="609" stroke="none" target-height="38.199997" target-width="38.199997" target-x="156.2" target-y="72.3"></path><path d="M 151.30 103.00 L 149.10 109.30 L 147.80 114.80 L 147.10 119.60 L 147.00 123.90 L 147.50 127.70 L 148.30 130.80 L 149.60 133.70 L 151.20 136.50 L 153.30 139.00 L 155.80 141.40 L 158.80 143.60 L 170.60 130.70 L 163.50 99.70 L 151.30 103.00 Z" fill="#450000" fill-rule="nonzero" group-id="3,16" node-id="611" stroke="none" target-height="43.90001" target-width="23.600006" target-x="147" target-y="99.7"></path><path d="M 158.00 130.70 L 162.50 178.90 L 198.40 203.10 L 198.90 143.80 Z" fill="#efbfa9" fill-rule="nonzero" group-id="3,16" node-id="613" stroke="none" target-height="72.40001" target-width="40.899994" target-x="158" target-y="130.7"></path><path d="M 152.20 144.20 L 160.70 159.00 L 166.00 147.70 Z" fill="#450000" fill-rule="nonzero" group-id="3,16" node-id="615" stroke="none" target-height="14.800003" target-width="13.800003" target-x="152.2" target-y="144.2"></path><path d="M 198.60 182.90 L 194.00 181.40 L 190.80 179.90 L 187.60 177.80 L 184.10 174.90 L 182.10 172.60 L 180.20 169.80 L 178.40 166.50 L 177.20 163.00 L 176.30 158.80 L 175.80 153.90 L 198.90 161.40 L 198.60 182.90 Z" fill="#e89076" fill-rule="nonzero" group-id="3,16" node-id="617" stroke="none" target-height="29" target-width="23.09999" target-x="175.8" target-y="153.9"></path><path d="M 213.40 95.70 L 218.00 102.50 L 222.00 111.20 L 224.50 120.20 L 225.50 126.10 L 213.90 127.90 L 205.10 100.10 L 213.40 95.70 Z" fill="#450000" fill-rule="nonzero" group-id="3,16" node-id="619" stroke="none" target-height="32.200005" target-width="20.399994" target-x="205.1" target-y="95.7"></path><path d="M 161.70 111.00 L 171.00 147.60 L 173.20 153.30 L 176.50 158.30 L 180.90 162.40 L 186.10 165.50 L 189.00 166.60 L 202.80 171.00 L 205.90 171.70 L 208.80 171.90 L 211.70 171.70 L 214.50 171.10 L 217.10 170.00 L 219.60 168.60 L 221.80 166.90 L 223.80 164.80 L 225.50 162.50 L 226.80 159.90 L 227.70 157.10 L 228.20 154.00 L 228.60 147.00 L 228.50 139.20 L 228.00 134.00 L 227.00 128.50 L 225.50 122.80 L 223.90 118.50 L 221.90 114.50 L 219.40 110.70 L 216.60 107.20 L 213.50 104.10 L 210.00 101.20 L 206.30 98.80 L 202.40 96.80 L 198.30 95.20 L 192.40 93.70 L 188.30 93.20 L 184.10 93.10 L 175.20 93.40 L 172.10 93.80 L 169.50 94.70 L 167.10 96.10 L 165.00 97.90 L 163.30 100.10 L 162.10 102.60 L 161.40 105.20 L 161.30 108.00 L 161.70 111.00 Z" fill="#efbfa9" fill-rule="nonzero" group-id="3,16" node-id="621" stroke="none" target-height="78.799995" target-width="67.3" target-x="161.3" target-y="93.1"></path><path d="M 236.10 130.80 L 235.40 135.30 L 233.40 139.10 L 230.40 141.90 L 228.50 142.90 L 224.50 143.70 L 220.50 142.90 L 217.00 140.70 L 214.50 137.30 L 213.10 133.20 L 212.90 130.80 L 213.10 128.30 L 213.80 125.90 L 214.90 123.60 L 216.30 121.70 L 218.10 120.10 L 220.10 118.90 L 222.20 118.20 L 224.50 117.90 L 226.80 118.20 L 228.90 118.90 L 230.90 120.10 L 232.70 121.70 L 234.10 123.60 L 235.20 125.90 L 235.90 128.30 L 236.10 130.80 Z" fill="none" group-id="3,16" node-id="623" stroke="#ffffff" stroke-linecap="butt" stroke-width="1" target-height="25.799995" target-width="23.200012" target-x="212.9" target-y="117.9"></path><g node-id="1072"><g node-id="1091"><path d="M 220.10 133.50 L 220.10 136.00 L 219.70 137.80 L 218.60 139.50 L 218.00 139.80 L 216.60 139.20 L 215.20 136.50 L 214.70 134.10 L 214.70 131.60 L 215.10 129.80 L 216.20 128.10 L 217.50 128.00 L 218.90 129.40 L 219.60 131.20 L 220.10 133.50 Z" fill="#000000" fill-rule="nonzero" group-id="3,16,42,61" node-id="629" stroke="none" target-height="11.800003" target-width="5.400009" target-x="214.7" target-y="128"></path></g><path d="M 210.70 128.70 L 211.80 131.00 L 214.20 134.20 L 216.30 135.80 L 218.30 136.70 L 223.70 137.70 L 225.00 138.50 L 225.90 139.80 L 226.30 141.30 L 226.10 143.40 L 225.40 145.40 L 224.20 147.10 L 222.50 148.40 L 213.50 153.30 L 210.10 153.80 L 208.50 153.50 L 205.50 152.20 L 203.20 149.90 L 202.40 148.40 L 197.70 129.00 L 210.70 128.70 Z" fill="#efbfa9" fill-rule="nonzero" group-id="3,16,42" node-id="632" stroke="none" target-height="25.100006" target-width="28.600006" target-x="197.7" target-y="128.7"></path><g node-id="1092"><path d="M 216.70 152.20 L 216.10 151.20 L 222.10 147.90 L 223.70 146.70 L 224.80 145.20 L 225.50 143.40 L 225.60 141.40 L 225.20 140.10 L 224.40 139.00 L 223.30 138.30 L 218.00 137.20 L 215.90 136.20 L 213.70 134.50 L 211.30 131.30 L 210.10 128.90 L 211.20 128.50 L 213.40 132.40 L 216.50 135.20 L 218.40 136.20 L 224.40 137.50 L 226.10 139.10 L 226.60 140.20 L 226.90 143.00 L 226.60 144.40 L 226.00 145.80 L 224.60 147.60 L 222.80 149.00 L 216.70 152.20 Z" fill="#e89076" fill-rule="nonzero" group-id="3,16,42,62" node-id="636" stroke="none" target-height="23.699997" target-width="16.799988" target-x="210.1" target-y="128.5"></path></g><g node-id="1093"><path d="M 200.30 136.50 L 200.30 139.00 L 199.90 140.80 L 198.80 142.50 L 198.20 142.80 L 196.80 142.20 L 195.40 139.40 L 194.90 137.10 L 194.90 134.60 L 195.30 132.80 L 196.40 131.10 L 197.70 131.00 L 199.10 132.40 L 199.80 134.10 L 200.30 136.50 Z" fill="#000000" fill-rule="nonzero" group-id="3,16,42,63" node-id="641" stroke="none" target-height="11.800003" target-width="5.400009" target-x="194.9" target-y="131"></path></g><path d="M 191.80 123.50 L 187.50 124.70 L 185.20 124.10 L 184.70 123.50 L 185.10 121.80 L 187.70 119.50 L 189.90 118.50 L 192.10 118.20 L 194.00 118.30 L 195.40 118.80 L 196.00 119.40 L 195.90 120.80 L 195.30 121.50 L 191.80 123.50 Z" fill="#450000" fill-rule="nonzero" group-id="3,16,42" node-id="644" stroke="none" target-height="6.5" target-width="11.300003" target-x="184.7" target-y="118.2"></path><path d="M 213.30 120.00 L 210.40 119.00 L 209.60 117.70 L 210.40 116.40 L 211.70 115.70 L 214.00 115.30 L 215.80 115.60 L 217.10 116.20 L 218.00 117.10 L 218.30 118.10 L 218.10 119.00 L 217.20 119.80 L 215.80 120.10 L 213.30 120.00 Z" fill="#450000" fill-rule="nonzero" group-id="3,16,42" node-id="646" stroke="none" target-height="4.7999954" target-width="8.699997" target-x="209.6" target-y="115.3"></path><path d="M 213.40 154.60 L 200.00 153.60 L 202.00 159.10 L 204.10 161.60 L 205.40 162.20 L 207.40 162.00 L 209.80 160.20 L 211.00 158.70 L 213.40 154.60 Z" fill="#ffffff" fill-rule="nonzero" group-id="3,16,42" node-id="648" stroke="none" target-height="8.599991" target-width="13.399994" target-x="200" target-y="153.6"></path></g><path d="M 206.70 136.80 L 206.00 141.30 L 204.00 145.10 L 201.00 147.90 L 199.10 148.90 L 195.10 149.70 L 191.10 148.90 L 187.60 146.70 L 185.10 143.30 L 183.70 139.20 L 183.50 136.80 L 183.70 134.30 L 184.40 131.90 L 185.50 129.60 L 186.90 127.70 L 188.70 126.10 L 190.70 124.90 L 192.80 124.20 L 195.10 123.90 L 197.40 124.20 L 199.50 124.90 L 201.50 126.10 L 203.30 127.70 L 204.70 129.60 L 205.80 131.90 L 206.50 134.30 L 206.70 136.80 Z" fill="none" group-id="3,16" node-id="651" stroke="#ffffff" stroke-linecap="butt" stroke-width="1" target-height="25.799995" target-width="23.199997" target-x="183.5" target-y="123.9"></path><path d="M 183.50 134.40 L 170.50 130.70" fill="none" group-id="3,16" node-id="653" stroke="#ffffff" stroke-linecap="butt" stroke-width="1" target-height="3.699997" target-width="13" target-x="170.5" target-y="130.7"></path><path d="M 181.00 93.20 L 182.10 96.60 L 182.70 100.10 L 182.80 103.60 L 182.40 107.20 L 181.50 110.70 L 180.10 114.10 L 178.20 117.30 L 175.90 120.30 L 173.00 123.10 L 169.80 125.50 L 166.10 127.50 L 161.90 129.20 L 157.50 130.30 L 152.60 130.90 L 147.10 130.90 L 143.10 121.50 L 141.80 117.20 L 140.90 112.80 L 140.60 108.90 L 140.90 105.30 L 141.60 102.80 L 142.70 100.50 L 144.20 98.50 L 146.10 96.60 L 148.30 95.10 L 151.10 93.90 L 154.60 92.80 L 159.00 92.10 L 168.10 91.90 L 181.00 93.20 Z" fill="#450000" fill-rule="nonzero" group-id="3,16" node-id="655" stroke="none" target-height="38.999992" target-width="42.199997" target-x="140.6" target-y="91.9"></path><path d="M 171.40 132.70 L 167.70 128.10 L 164.50 124.80 L 161.70 122.70 L 158.50 121.00 L 155.90 120.10 L 153.70 120.00 L 151.40 120.40 L 149.50 121.30 L 147.90 122.80 L 146.60 124.50 L 145.60 126.60 L 144.60 131.60 L 145.10 137.10 L 146.00 139.80 L 147.30 142.30 L 149.00 144.80 L 151.20 147.00 L 153.90 148.80 L 157.20 150.40 L 162.70 151.70 L 166.10 152.00 L 170.00 151.90 L 171.40 132.70 Z" fill="#efbfa9" fill-rule="nonzero" group-id="3,16" node-id="657" stroke="none" target-height="32" target-width="26.799988" target-x="144.6" target-y="120"></path><path d="M 171.10 108.20 L 171.70 140.30 L 169.00 142.10 L 158.80 111.20 Z" fill="#450000" fill-rule="nonzero" group-id="3,16" node-id="659" stroke="none" target-height="33.90001" target-width="12.899994" target-x="158.8" target-y="108.2"></path><path d="M 172.70 96.70 L 181.60 99.40 L 191.90 100.90 L 197.30 101.00 L 202.50 100.70 L 210.50 99.50 L 215.30 98.20 L 213.70 95.80 L 210.00 92.70 L 205.10 90.60 L 199.30 89.80 L 192.50 90.30 L 188.00 91.20 L 178.60 94.20 L 172.70 96.70 Z" fill="#450000" fill-rule="nonzero" group-id="3,16" node-id="661" stroke="none" target-height="11.199997" target-width="42.600006" target-x="172.7" target-y="89.8"></path><path d="M 144.50 100.30 L 144.30 98.10 L 143.30 95.40 L 141.50 94.00 L 140.70 93.80 L 139.30 94.00 L 138.30 94.80 L 137.80 95.60 L 137.70 97.70 L 139.00 100.10 L 140.60 101.70 L 138.10 101.60 L 135.10 102.20 L 134.10 103.00 L 133.20 104.90 L 133.30 106.60 L 134.00 108.40 L 135.10 110.20 L 136.60 111.60 L 138.30 112.70 L 140.20 113.20 L 142.60 112.70 L 143.90 111.80" fill="#450000" fill-rule="nonzero" group-id="3,16" node-id="663" stroke="none" target-height="19.399994" target-width="11.300003" target-x="133.2" target-y="93.8"></path></g><path d="M 199.80 203.80 L 200.30 199.80 L 200.10 193.10 L 199.40 190.30 L 198.00 186.70 L 196.10 183.60 L 193.70 180.80 L 187.80 176.00 L 184.30 174.00 L 178.80 171.30 L 161.30 164.30 L 151.00 177.50 L 199.80 203.80 Z" fill="#ffffff" fill-rule="nonzero" group-id="3" node-id="666" stroke="none" target-height="39.5" target-width="49.300003" target-x="151" target-y="164.3"></path><g node-id="1047"><path d="M 111.80 279.00 L 117.70 278.10 L 123.20 277.90 L 126.90 278.00 L 133.00 279.20 L 135.80 280.30 L 138.10 281.60 L 139.90 283.20 L 141.40 285.20 L 142.30 287.40 L 142.70 290.10 L 142.50 292.90 L 141.70 296.20 L 140.00 300.20 L 110.00 302.00 L 111.80 279.00 Z" fill="#c43f00" fill-rule="nonzero" group-id="3,17" node-id="670" stroke="none" target-height="24.100006" target-width="32.699997" target-x="110" target-y="277.9"></path><path d="M 107.40 335.50 L 101.50 336.80 L 96.40 337.50 L 92.00 337.70 L 88.20 337.40 L 84.30 336.70 L 81.10 335.70 L 78.30 334.40 L 76.00 332.80 L 73.90 330.80 L 72.20 328.60 L 70.90 326.20 L 70.00 323.60 L 69.20 319.90 L 69.10 316.10 L 69.50 312.00 L 70.40 308.00 L 71.90 304.00 L 73.90 300.10 L 76.30 296.40 L 79.10 293.00 L 82.40 289.90 L 88.00 286.20 L 94.50 283.60 L 107.40 335.50 Z" fill="#c43f00" fill-rule="nonzero" group-id="3,17" node-id="672" stroke="none" target-height="54.100006" target-width="38.300003" target-x="69.1" target-y="283.6"></path></g><path d="M 109.80 321.00 L 78.10 325.70 L 77.30 317.30 L 76.80 308.70 L 76.90 300.20 L 77.40 291.50 L 78.20 282.80 L 79.60 274.20 L 81.30 265.60 L 83.50 257.00 L 86.10 248.50 L 89.10 240.10 L 92.50 231.70 L 96.30 223.50 L 100.50 215.40 L 105.10 207.60 L 110.20 199.90 L 115.60 192.30 L 118.20 189.50 L 121.10 187.20 L 124.20 185.50 L 127.70 184.30 L 131.20 183.60 L 134.80 183.60 L 138.30 184.10 L 141.80 185.20 L 145.20 187.00 L 147.90 189.00 L 150.10 191.30 L 152.00 193.80 L 153.50 196.60 L 154.60 199.50 L 155.20 202.60 L 155.40 205.80 L 155.20 209.00 L 154.40 212.20 L 109.80 321.00 Z" fill="#c43f00" fill-rule="nonzero" group-id="3" node-id="675" stroke="none" target-height="142.1" target-width="78.59999" target-x="76.8" target-y="183.6"></path><g node-id="1048"><g node-id="1073"><path d="M 267.30 256.20 L 264.80 253.10 L 263.60 252.40 L 216.10 246.10 L 215.10 246.10 L 213.20 246.90 L 161.30 310.10 L 160.90 311.00 L 161.00 311.90 L 161.50 312.70 L 162.30 313.20 L 196.00 320.90 L 197.90 320.40 L 198.70 319.80 L 264.00 256.20 L 267.30 256.20 Z" fill="#e5ebea" fill-rule="nonzero" group-id="3,18,43" node-id="681" stroke="none" target-height="74.79999" target-width="106.399994" target-x="160.9" target-y="246.1"></path><path d="M 163.80 313.20 L 214.90 250.70 L 216.60 249.50 L 218.60 249.20 L 266.10 255.50 L 267.10 255.90 L 267.70 256.80 L 267.70 257.80 L 267.20 258.80 L 200.60 323.50 L 198.70 324.10 L 197.70 323.90 L 165.00 316.30 L 164.00 315.80 L 163.50 315.10 L 163.40 314.10 L 163.80 313.20 Z" fill="#ffffff" fill-rule="nonzero" group-id="3,18,43" node-id="683" stroke="none" target-height="74.90001" target-width="104.30002" target-x="163.4" target-y="249.2"></path><path d="M 227.40 282.60 L 225.80 284.80 L 223.90 286.80 L 219.50 289.70 L 217.20 290.50 L 215.20 290.80 L 213.80 290.60 L 212.00 289.30 L 211.60 288.30 L 211.40 286.70 L 211.80 284.70 L 213.00 282.30 L 214.60 280.10 L 216.50 278.10 L 220.90 275.20 L 223.20 274.40 L 225.20 274.10 L 226.60 274.40 L 228.30 275.70 L 228.80 276.70 L 228.90 278.30 L 228.50 280.20 L 227.40 282.60 Z" fill="#e5ebea" fill-rule="nonzero" group-id="3,18,43" node-id="685" stroke="none" target-height="16.699982" target-width="17.5" target-x="211.4" target-y="274.1"></path><path d="M 220.30 255.90 L 219.70 256.70 L 218.20 257.70 L 216.90 257.60 L 216.60 256.60 L 217.60 255.00 L 219.10 254.00 L 220.40 254.10 L 220.60 255.10 L 220.30 255.90 Z" fill="#e5ebea" fill-rule="nonzero" group-id="3,18,43" node-id="687" stroke="none" target-height="3.7000122" target-width="4" target-x="216.6" target-y="254"></path></g><g node-id="1074"><path d="M 199.60 315.60 L 242.80 286.10 L 187.30 290.30 L 182.60 308.90 Z" fill="#efbfa9" fill-rule="nonzero" group-id="3,18,44" node-id="692" stroke="none" target-height="29.5" target-width="60.199997" target-x="182.6" target-y="286.1"></path><path d="M 191.70 292.20 L 182.80 290.80 L 182.00 290.20 L 180.90 288.40 L 181.10 286.20 L 182.50 283.60 L 184.00 282.20 L 185.80 281.30 L 187.70 280.90 L 189.80 281.00 L 191.80 281.70 L 193.60 283.00 L 194.90 284.70 L 195.60 286.70 L 195.80 288.80 L 195.30 290.30 L 194.40 291.40 L 193.20 292.10 L 191.70 292.20 Z" fill="#efbfa9" fill-rule="nonzero" group-id="3,18,44" node-id="694" stroke="none" target-height="11.300018" target-width="14.900009" target-x="180.9" target-y="280.9"></path><path d="M 208.90 291.90 L 242.90 286.10 L 244.20 283.20 L 246.80 280.00 L 250.20 277.60 L 252.10 276.80 L 253.10 275.80 L 252.60 273.70 L 251.00 271.70 L 249.40 270.80 L 247.40 270.50 L 246.10 270.70 L 242.20 272.20 L 240.70 273.20 L 238.30 275.80 L 236.80 279.10 L 208.90 291.90 Z" fill="#efbfa9" fill-rule="nonzero" group-id="3,18,44" node-id="696" stroke="none" target-height="21.399994" target-width="44.200012" target-x="208.9" target-y="270.5"></path><path d="M 221.50 293.30 L 237.00 288.00 L 238.30 284.80 L 239.70 282.50 L 241.30 280.80 L 243.10 279.30 L 246.90 277.50 L 247.90 276.50 L 247.90 275.70 L 247.30 274.20 L 245.30 272.10 L 244.00 271.50 L 242.10 272.30 L 240.60 273.30 L 238.20 275.90 L 233.80 286.40 L 221.50 293.30 Z" fill="#e89076" fill-rule="nonzero" group-id="3,18,44" node-id="698" stroke="none" target-height="21.799988" target-width="26.399994" target-x="221.5" target-y="271.5"></path><path d="M 233.80 286.30 L 235.10 283.40 L 237.70 280.20 L 241.10 277.80 L 243.50 276.70 L 244.00 275.80 L 243.40 273.70 L 242.60 272.50 L 241.40 271.60 L 238.60 270.70 L 237.00 270.90 L 233.10 272.40 L 231.60 273.40 L 229.20 276.00 L 227.70 279.30 L 199.80 292.10 L 233.80 286.30 Z" fill="#efbfa9" fill-rule="nonzero" group-id="3,18,44" node-id="700" stroke="none" target-height="21.399994" target-width="44.199997" target-x="199.8" target-y="270.7"></path></g><path d="M 120.50 293.30 L 189.00 300.20 L 199.60 315.60 L 185.80 321.60 L 179.10 324.10 L 161.90 329.60 L 151.90 332.10 L 138.10 334.80 L 130.90 335.70 L 123.60 336.30 L 116.30 336.40 L 108.90 336.20 L 105.20 335.60 L 101.90 334.50 L 99.10 332.90 L 96.50 330.90 L 94.40 328.50 L 92.70 325.90 L 91.40 323.00 L 90.60 320.00 L 90.20 316.80 L 90.40 313.60 L 91.00 310.50 L 92.20 307.50 L 93.80 304.70 L 96.10 302.10 L 101.50 298.00 L 104.40 296.30 L 110.60 294.00 L 117.10 293.20 L 120.50 293.30 Z" fill="#efbfa9" fill-rule="nonzero" group-id="3,18" node-id="703" stroke="none" target-height="43.19998" target-width="109.40001" target-x="90.2" target-y="293.2"></path></g><path d="M 104.50 373.10 L 183.00 384.00 L 187.30 356.40 L 110.50 356.30 Z" fill="#ffffff" fill-rule="nonzero" group-id="3" node-id="706" stroke="none" target-height="27.700012" target-width="82.8" target-x="104.5" target-y="356.3"></path><path d="M 193.40 356.40 L 198.40 384.00 L 226.90 373.10 L 220.90 356.40 Z" fill="#ffffff" fill-rule="nonzero" group-id="3" node-id="708" stroke="none" target-height="27.600006" target-width="33.5" target-x="193.4" target-y="356.4"></path></g><g node-id="1034"><g node-id="1049"><g node-id="1075"><path d="M 255.70 429.30 L 255.70 470.30 L 464.00 470.30 L 466.50 470.00 L 468.80 469.20 L 470.80 468.00 L 472.60 466.30 L 474.00 464.30 L 475.00 462.00 L 475.70 457.80 L 475.70 441.90 L 475.50 439.60 L 474.90 437.40 L 473.80 435.10 L 472.40 433.20 L 470.70 431.60 L 468.70 430.40 L 466.50 429.70 L 464.00 429.40 L 255.70 429.40 Z" fill="#b22900" fill-rule="nonzero" group-id="4,19,45" node-id="717" stroke="none" target-height="41" target-width="220.00002" target-x="255.7" target-y="429.3"></path><path d="M 357.10 437.40 L 357.10 462.00 L 475.00 462.00 L 475.70 457.80 L 475.70 441.90 L 475.50 439.60 L 474.90 437.40 L 357.10 437.40 Z" fill="#c43f00" fill-rule="nonzero" group-id="4,19,45" node-id="719" stroke="none" target-height="24.600006" target-width="118.600006" target-x="357.1" target-y="437.4"></path><path d="M 403.10 449.70 L 402.40 453.20 L 400.40 456.10 L 397.50 458.10 L 394.00 458.80 L 390.50 458.10 L 387.60 456.10 L 385.60 453.20 L 384.90 449.70 L 385.60 446.20 L 387.60 443.30 L 390.50 441.30 L 394.00 440.60 L 397.50 441.30 L 400.40 443.30 L 402.40 446.20 L 403.10 449.70 Z" fill="#ffb72f" fill-rule="nonzero" group-id="4,19,45" node-id="721" stroke="none" target-height="18.199982" target-width="18.200012" target-x="384.9" target-y="440.6"></path><path d="M 353.20 429.30 L 259.20 429.30 L 259.20 470.30 L 353.20 470.30 L 356.30 470.00 L 359.20 469.20 L 361.80 468.00 L 364.20 466.30 L 366.20 464.30 L 367.90 461.90 L 369.10 459.30 L 369.90 456.40 L 370.20 453.30 L 369.90 443.30 L 369.10 440.40 L 367.90 437.80 L 366.20 435.40 L 364.20 433.30 L 361.80 431.60 L 359.20 430.40 L 356.30 429.60 L 353.20 429.30 Z" fill="#c43f00" fill-rule="nonzero" group-id="4,19,45" node-id="723" stroke="none" target-height="41" target-width="111" target-x="259.2" target-y="429.3"></path><path d="M 253.40 429.30 L 271.40 429.30 L 271.40 435.40 L 253.40 435.40 L 252.30 435.20 L 251.40 434.50 L 250.70 433.50 L 250.50 432.30 L 251.40 430.20 L 252.30 429.50 L 253.40 429.30 Z" fill="#c43f00" fill-rule="nonzero" group-id="4,19,45" node-id="725" stroke="none" target-height="6.100006" target-width="20.899994" target-x="250.5" target-y="429.3"></path><path d="M 253.10 464.10 L 271.40 464.10 L 271.40 470.20 L 252.10 470.00 L 250.70 468.70 L 250.50 466.60 L 251.30 464.90 L 253.10 464.10 Z" fill="#c43f00" fill-rule="nonzero" group-id="4,19,45" node-id="727" stroke="none" target-height="6.100006" target-width="20.899994" target-x="250.5" target-y="464.1"></path><g node-id="1094"><path d="M 350.90 435.50 L 255.70 435.50 L 255.70 464.20 L 350.90 464.20 L 355.10 463.50 L 356.90 462.60 L 360.00 460.00 L 362.10 456.50 L 362.80 452.30 L 362.60 445.30 L 361.20 441.40 L 358.60 438.30 L 355.10 436.20 L 350.90 435.50 Z" fill="#e9eeec" fill-rule="nonzero" group-id="4,19,45,64" node-id="731" stroke="none" target-height="28.700012" target-width="107.09999" target-x="255.7" target-y="435.5"></path><path d="M 348.50 439.20 L 255.80 439.20 L 255.80 464.10 L 351.70 464.10 L 353.50 463.90 L 355.00 463.20 L 356.30 462.20 L 357.30 460.90 L 358.00 459.40 L 358.20 457.60 L 358.00 447.10 L 356.80 444.00 L 355.30 442.10 L 353.30 440.50 L 351.90 439.80 L 348.50 439.20 Z" fill="#ffffff" fill-rule="nonzero" group-id="4,19,45,64" node-id="733" stroke="none" target-height="24.899994" target-width="102.40001" target-x="255.8" target-y="439.2"></path><g node-id="1107"><g clip-path="url(#SVGID_4_)" group-id="4,19,45,64,77" node-id="737"><path d="M 359.00 444.40 L 255.70 444.40" fill="none" group-id="4,19,45,64,77,80" node-id="739" stroke="#f1f4f6" stroke-linecap="butt" stroke-width="1" target-height="0" target-width="103.3" target-x="255.7" target-y="444.4"></path><path d="M 362.50 449.50 L 255.70 449.50" fill="none" group-id="4,19,45,64,77,80" node-id="741" stroke="#f1f4f6" stroke-linecap="butt" stroke-width="1" target-height="0" target-width="106.8" target-x="255.7" target-y="449.5"></path><path d="M 362.50 454.50 L 255.70 454.50" fill="none" group-id="4,19,45,64,77,80" node-id="743" stroke="#f1f4f6" stroke-linecap="butt" stroke-width="1" target-height="0" target-width="106.8" target-x="255.7" target-y="454.5"></path><path d="M 362.50 459.60 L 255.70 459.60" fill="none" group-id="4,19,45,64,77,80" node-id="745" stroke="#f1f4f6" stroke-linecap="butt" stroke-width="1" target-height="0" target-width="106.8" target-x="255.7" target-y="459.6"></path></g></g></g></g><path d="M 456.80 462.00 L 445.20 462.00 L 444.20 464.30 L 442.80 466.30 L 441.00 468.00 L 439.00 469.20 L 436.70 470.00 L 434.20 470.30 L 456.30 470.30 L 458.80 470.00 L 461.10 469.20 L 463.10 468.00 L 464.90 466.30 L 466.30 464.40 L 467.30 462.00 L 456.80 462.00 Z" fill="#eaa105" fill-rule="nonzero" group-id="4,19" node-id="751" stroke="none" target-height="8.299988" target-width="33.099976" target-x="434.2" target-y="462"></path><path d="M 456.20 429.30 L 434.10 429.30 L 436.60 429.60 L 438.80 430.30 L 440.80 431.50 L 442.50 433.10 L 443.90 435.00 L 445.00 437.30 L 467.10 437.30 L 466.10 435.10 L 464.70 433.20 L 462.90 431.60 L 460.90 430.30 L 458.70 429.60 L 456.20 429.30 Z" fill="#eaa105" fill-rule="nonzero" group-id="4,19" node-id="753" stroke="none" target-height="8" target-width="33" target-x="434.1" target-y="429.3"></path><path d="M 467.20 437.40 L 445.10 437.40 L 445.90 441.90 L 445.90 457.80 L 445.20 462.00 L 467.30 462.00 L 468.00 457.80 L 468.00 441.90 L 467.20 437.40 Z" fill="#ffb72f" fill-rule="nonzero" group-id="4,19" node-id="755" stroke="none" target-height="24.600006" target-width="22.899994" target-x="445.1" target-y="437.4"></path><g node-id="1076"><path d="M 333.10 444.30 L 333.10 462.00 L 339.00 458.40 L 344.80 462.00 L 344.80 444.30" fill="#dee5e3" fill-rule="nonzero" group-id="4,19,46" node-id="759" stroke="none" target-height="17.700012" target-width="11.699982" target-x="333.1" target-y="444.3"></path><path d="M 328.70 458.40 L 335.40 454.90 L 340.40 458.40 L 344.80 444.30 L 333.10 444.30 Z" fill="#eaa105" fill-rule="nonzero" group-id="4,19,46" node-id="761" stroke="none" target-height="14.100006" target-width="16.099976" target-x="328.7" target-y="444.3"></path></g></g><g node-id="1050"><g node-id="1077"><path d="M 454.20 399.70 L 454.20 429.40 L 276.60 429.40 L 272.50 428.60 L 269.30 426.50 L 267.20 423.40 L 266.60 420.30 L 266.60 408.80 L 267.30 405.60 L 269.40 402.60 L 272.60 400.50 L 274.50 400.00 L 276.60 399.80 L 454.20 399.80 Z" fill="#eaa105" fill-rule="nonzero" group-id="4,20,47" node-id="769" stroke="none" target-height="29.699982" target-width="187.6" target-x="266.6" target-y="399.7"></path><path d="M 367.70 405.60 L 367.70 423.50 L 267.30 423.50 L 266.70 420.40 L 266.70 408.90 L 267.40 405.70 L 367.70 405.70 Z" fill="#ffb72f" fill-rule="nonzero" group-id="4,20,47" node-id="771" stroke="none" target-height="17.899994" target-width="101" target-x="266.7" target-y="405.6"></path><path d="M 341.50 417.40 L 279.00 417.40 L 277.30 416.70 L 276.60 415.00 L 276.80 413.00 L 277.30 412.30 L 279.00 411.60 L 341.50 411.60 L 343.20 412.30 L 343.90 414.00 L 343.70 416.00 L 343.20 416.70 L 341.50 417.40 Z" fill="#c43f00" fill-rule="nonzero" group-id="4,20,47" node-id="773" stroke="none" target-height="5.799988" target-width="67.29999" target-x="276.6" target-y="411.6"></path><path d="M 368.90 399.70 L 451.30 399.70 L 451.30 429.40 L 368.90 429.40 L 364.60 428.60 L 361.00 426.50 L 358.30 423.30 L 357.40 421.40 L 356.60 417.10 L 356.80 409.90 L 358.30 405.90 L 361.00 402.60 L 364.60 400.50 L 368.90 399.70 Z" fill="#ffb72f" fill-rule="nonzero" group-id="4,20,47" node-id="775" stroke="none" target-height="29.699982" target-width="94.69998" target-x="356.6" target-y="399.7"></path><path d="M 456.20 399.70 L 440.90 399.70 L 440.90 404.10 L 457.20 403.90 L 458.40 402.80 L 458.40 401.10 L 457.10 399.90 L 456.20 399.70 Z" fill="#ffb72f" fill-rule="nonzero" group-id="4,20,47" node-id="777" stroke="none" target-height="4.399994" target-width="17.5" target-x="440.9" target-y="399.7"></path><path d="M 456.80 425.00 L 440.90 425.00 L 440.90 429.40 L 457.50 429.30 L 458.50 428.30 L 458.60 426.90 L 458.10 425.50 L 456.80 425.00 Z" fill="#ffb72f" fill-rule="nonzero" group-id="4,20,47" node-id="779" stroke="none" target-height="4.399994" target-width="17.700012" target-x="440.9" target-y="425"></path><g node-id="1095"><path d="M 454.20 404.20 L 454.20 425.00 L 373.30 425.00 L 370.70 424.70 L 368.40 423.80 L 365.50 421.60 L 363.60 418.40 L 362.90 414.60 L 363.10 412.50 L 364.70 408.80 L 367.40 406.00 L 371.10 404.50 L 454.20 404.30 Z" fill="#e9eeec" fill-rule="nonzero" group-id="4,20,47,65" node-id="783" stroke="none" target-height="20.799988" target-width="91.30002" target-x="362.9" target-y="404.2"></path><path d="M 454.20 406.90 L 454.20 425.00 L 373.30 425.00 L 370.70 424.70 L 368.40 423.80 L 367.10 421.80 L 366.90 420.40 L 367.10 416.70 L 367.60 414.70 L 369.70 411.20 L 372.80 408.60 L 376.60 407.20 L 454.20 407.00 Z" fill="#ffffff" fill-rule="nonzero" group-id="4,20,47,65" node-id="785" stroke="none" target-height="18.100006" target-width="87.30002" target-x="366.9" target-y="406.9"></path><g node-id="1108"><g clip-path="url(#SVGID_6_)" group-id="4,20,47,65,78" node-id="789"><path d="M 366.20 410.70 L 454.20 410.70" fill="none" group-id="4,20,47,65,78,81" node-id="791" stroke="#f1f4f6" stroke-linecap="butt" stroke-width="1" target-height="0" target-width="88" target-x="366.2" target-y="410.7"></path><path d="M 363.20 414.30 L 454.20 414.30" fill="none" group-id="4,20,47,65,78,81" node-id="793" stroke="#f1f4f6" stroke-linecap="butt" stroke-width="1" target-height="0" target-width="91" target-x="363.2" target-y="414.3"></path><path d="M 363.20 418.00 L 454.20 418.00" fill="none" group-id="4,20,47,65,78,81" node-id="795" stroke="#f1f4f6" stroke-linecap="butt" stroke-width="1" target-height="0" target-width="91" target-x="363.2" target-y="418"></path><path d="M 363.20 421.70 L 454.20 421.70" fill="none" group-id="4,20,47,65,78,81" node-id="797" stroke="#f1f4f6" stroke-linecap="butt" stroke-width="1" target-height="0" target-width="91" target-x="363.2" target-y="421.7"></path></g></g></g></g></g><g node-id="1051"><g node-id="1078"><path d="M 464.70 359.00 L 464.70 399.70 L 269.30 399.70 L 266.00 399.40 L 262.90 398.70 L 260.00 397.50 L 257.30 395.80 L 254.90 393.90 L 252.90 391.50 L 251.20 388.80 L 250.00 385.90 L 249.20 382.70 L 248.90 379.40 L 249.20 376.10 L 250.00 372.90 L 251.20 370.00 L 253.80 366.10 L 256.90 363.30 L 259.00 361.80 L 263.90 359.70 L 266.50 359.20 L 464.70 359.00 Z" fill="#450000" fill-rule="nonzero" group-id="4,21,48" node-id="808" stroke="none" target-height="40.700012" target-width="215.80002" target-x="248.9" target-y="359"></path><path d="M 374.70 367.20 L 374.70 391.50 L 253.00 391.50 L 251.30 388.80 L 250.10 385.90 L 249.30 382.70 L 249.00 379.40 L 249.30 376.10 L 250.10 372.90 L 251.30 370.00 L 253.00 367.30 L 374.70 367.30 Z" fill="#5e2222" fill-rule="nonzero" group-id="4,21,48" node-id="810" stroke="none" target-height="24.299988" target-width="125.70001" target-x="249" target-y="367.2"></path><path d="M 359.90 359.00 L 461.10 359.00 L 461.10 399.70 L 359.90 399.70 L 356.80 399.40 L 354.00 398.60 L 351.30 397.40 L 349.00 395.70 L 347.00 393.70 L 345.30 391.30 L 344.00 388.70 L 343.30 385.90 L 343.00 382.80 L 343.30 372.90 L 344.00 370.00 L 345.20 367.40 L 346.90 365.00 L 348.90 363.00 L 351.30 361.30 L 353.90 360.10 L 356.80 359.30 L 359.90 359.00 Z" fill="#5e2222" fill-rule="nonzero" group-id="4,21,48" node-id="812" stroke="none" target-height="40.700012" target-width="118.100006" target-x="343" target-y="359"></path><path d="M 467.10 359.00 L 448.00 359.00 L 448.00 365.10 L 467.10 365.10 L 468.30 364.90 L 469.30 364.20 L 470.00 363.20 L 470.20 362.00 L 470.00 360.90 L 469.30 359.90 L 468.30 359.20 L 467.10 359.00 Z" fill="#5e2222" fill-rule="nonzero" group-id="4,21,48" node-id="814" stroke="none" target-height="6.100006" target-width="22.200012" target-x="448" target-y="359"></path><path d="M 467.60 393.60 L 448.00 393.60 L 448.00 399.70 L 468.60 399.50 L 469.90 398.20 L 469.90 395.20 L 468.60 393.80 L 467.60 393.60 Z" fill="#5e2222" fill-rule="nonzero" group-id="4,21,48" node-id="816" stroke="none" target-height="6.100006" target-width="21.899994" target-x="448" target-y="393.6"></path><g node-id="1096"><path d="M 464.70 365.10 L 464.70 393.60 L 365.00 393.60 L 362.50 393.40 L 360.20 392.80 L 358.10 391.90 L 354.50 389.00 L 352.00 385.20 L 350.80 380.60 L 351.10 376.50 L 351.90 373.90 L 353.20 371.40 L 355.00 369.30 L 357.10 367.50 L 359.50 366.20 L 362.20 365.40 L 365.10 365.10 L 464.70 365.10 Z" fill="#f2f5f4" fill-rule="nonzero" group-id="4,21,48,66" node-id="820" stroke="none" target-height="28.5" target-width="113.900024" target-x="350.8" target-y="365.1"></path><path d="M 464.70 369.70 L 464.70 393.60 L 365.00 393.60 L 362.50 393.40 L 360.20 392.80 L 358.10 391.90 L 354.50 389.00 L 352.00 385.20 L 350.80 380.60 L 351.40 377.80 L 352.50 375.40 L 354.20 373.30 L 356.00 371.80 L 358.00 370.70 L 360.20 370.00 L 362.70 369.80 L 464.70 369.80 Z" fill="#ffffff" fill-rule="nonzero" group-id="4,21,48,66" node-id="822" stroke="none" target-height="23.899994" target-width="113.900024" target-x="350.8" target-y="369.7"></path><g node-id="1109"><g clip-path="url(#SVGID_8_)" group-id="4,21,48,66,79" node-id="826"><path d="M 354.90 372.10 L 464.70 372.10" fill="none" group-id="4,21,48,66,79,82" node-id="828" stroke="#f1f4f6" stroke-linecap="butt" stroke-width="1" target-height="0" target-width="109.80002" target-x="354.9" target-y="372.1"></path><path d="M 351.10 377.80 L 464.70 377.80" fill="none" group-id="4,21,48,66,79,82" node-id="830" stroke="#f1f4f6" stroke-linecap="butt" stroke-width="1" target-height="0" target-width="113.600006" target-x="351.1" target-y="377.8"></path><path d="M 351.10 383.40 L 464.70 383.40" fill="none" group-id="4,21,48,66,79,82" node-id="832" stroke="#f1f4f6" stroke-linecap="butt" stroke-width="1" target-height="0" target-width="113.600006" target-x="351.1" target-y="383.4"></path><path d="M 351.10 389.10 L 464.70 389.10" fill="none" group-id="4,21,48,66,79,82" node-id="834" stroke="#f1f4f6" stroke-linecap="butt" stroke-width="1" target-height="0" target-width="113.600006" target-x="351.1" target-y="389.1"></path></g></g><path d="M 383.30 372.10 L 383.30 391.50 L 376.80 387.60 L 370.40 391.50 L 370.40 372.10" fill="#dee5e3" fill-rule="nonzero" group-id="4,21,48,66" node-id="838" stroke="none" target-height="19.399994" target-width="12.899994" target-x="370.4" target-y="372.1"></path><path d="M 388.10 387.60 L 380.80 383.70 L 375.20 387.60 L 370.40 372.10 L 383.30 372.10 Z" fill="#c43f00" fill-rule="nonzero" group-id="4,21,48,66" node-id="840" stroke="none" target-height="15.5" target-width="17.700012" target-x="370.4" target-y="372.1"></path></g><path d="M 372.30 370.90 L 384.30 370.90" fill="#f1f4f6" fill-rule="nonzero" group-id="4,21,48" node-id="843" stroke="none" target-height="0" target-width="12" target-x="372.3" target-y="370.9"></path></g><path d="M 301.00 399.70 L 278.60 399.70 L 275.30 399.40 L 272.20 398.70 L 269.30 397.50 L 266.60 395.80 L 264.20 393.90 L 262.20 391.50 L 260.50 388.80 L 259.30 385.90 L 258.50 382.70 L 258.20 379.40 L 258.50 376.10 L 259.30 372.90 L 260.50 370.00 L 262.20 367.30 L 266.20 363.30 L 270.70 360.60 L 275.80 359.20 L 278.60 359.00 L 301.00 359.00 L 298.20 359.20 L 293.10 360.60 L 290.70 361.80 L 286.60 365.00 L 284.60 367.30 L 282.90 370.00 L 281.70 372.90 L 280.90 376.10 L 280.60 379.40 L 280.90 382.70 L 281.70 385.90 L 282.90 388.80 L 284.60 391.50 L 286.60 393.90 L 289.00 395.80 L 291.70 397.50 L 294.60 398.70 L 297.70 399.40 L 301.00 399.70 Z" fill="#b22900" fill-rule="nonzero" group-id="4,21" node-id="846" stroke="none" target-height="40.700012" target-width="42.799988" target-x="258.2" target-y="359"></path><path d="M 316.00 399.70 L 306.30 399.70 L 303.00 399.40 L 299.90 398.70 L 297.00 397.50 L 294.30 395.80 L 291.90 393.90 L 289.90 391.50 L 288.20 388.80 L 287.00 385.90 L 286.20 382.70 L 285.90 379.40 L 286.20 376.10 L 287.00 372.90 L 288.20 370.00 L 290.80 366.10 L 293.90 363.30 L 298.40 360.60 L 303.50 359.20 L 316.00 359.00 L 313.20 359.20 L 308.10 360.60 L 305.70 361.80 L 301.60 365.00 L 299.60 367.30 L 297.90 370.00 L 296.70 372.90 L 295.90 376.10 L 295.60 379.40 L 295.90 382.70 L 296.70 385.90 L 297.90 388.80 L 299.60 391.50 L 301.70 393.90 L 304.00 395.80 L 306.70 397.50 L 309.60 398.70 L 312.70 399.40 L 316.00 399.70 Z" fill="#b22900" fill-rule="nonzero" group-id="4,21" node-id="848" stroke="none" target-height="40.700012" target-width="30.100006" target-x="285.9" target-y="359"></path><path d="M 280.60 379.40 L 280.90 382.70 L 281.70 385.90 L 282.90 388.80 L 284.60 391.50 L 262.20 391.50 L 260.50 388.80 L 259.30 385.90 L 258.50 382.70 L 258.20 379.40 L 258.50 376.10 L 259.30 372.90 L 260.50 370.00 L 262.20 367.30 L 284.60 367.30 L 282.90 369.90 L 281.70 372.90 L 280.90 376.00 L 280.60 379.40 Z" fill="#c43f00" fill-rule="nonzero" group-id="4,21" node-id="850" stroke="none" target-height="24.200012" target-width="26.399994" target-x="258.2" target-y="367.3"></path><path d="M 295.60 379.40 L 295.90 382.70 L 296.70 385.90 L 297.90 388.80 L 299.60 391.50 L 290.00 391.50 L 288.30 388.80 L 287.10 385.90 L 286.30 382.70 L 286.00 379.40 L 286.30 376.10 L 287.10 372.90 L 288.30 370.00 L 290.00 367.30 L 299.70 367.30 L 298.00 369.90 L 296.70 372.90 L 295.90 376.00 L 295.60 379.40 Z" fill="#c43f00" fill-rule="nonzero" group-id="4,21" node-id="852" stroke="none" target-height="24.200012" target-width="13.700012" target-x="286" target-y="367.3"></path><path d="M 356.30 399.70 L 346.60 399.70 L 343.30 399.40 L 340.20 398.70 L 337.30 397.50 L 334.60 395.80 L 332.20 393.90 L 330.20 391.50 L 328.50 388.80 L 327.30 385.90 L 326.50 382.70 L 326.20 379.40 L 326.50 376.10 L 327.30 372.90 L 328.50 370.00 L 331.10 366.10 L 334.20 363.30 L 338.70 360.60 L 343.80 359.20 L 356.30 359.00 L 353.50 359.20 L 348.40 360.60 L 346.00 361.80 L 341.90 365.00 L 339.90 367.30 L 338.20 370.00 L 337.00 372.90 L 336.20 376.10 L 335.90 379.40 L 336.20 382.70 L 337.00 385.90 L 338.20 388.80 L 339.90 391.50 L 342.00 393.90 L 344.30 395.80 L 347.00 397.50 L 349.90 398.70 L 353.00 399.40 L 356.30 399.70 Z" fill="#b22900" fill-rule="nonzero" group-id="4,21" node-id="854" stroke="none" target-height="40.700012" target-width="30.099976" target-x="326.2" target-y="359"></path><path d="M 336.00 379.40 L 336.30 382.70 L 337.10 385.90 L 338.30 388.80 L 340.00 391.50 L 330.30 391.50 L 328.60 388.80 L 327.40 385.90 L 326.60 382.70 L 326.30 379.40 L 326.60 376.10 L 327.40 372.90 L 328.60 370.00 L 330.30 367.30 L 340.00 367.30 L 338.30 369.90 L 337.10 372.90 L 336.30 376.00 L 336.00 379.40 Z" fill="#c43f00" fill-rule="nonzero" group-id="4,21" node-id="856" stroke="none" target-height="24.200012" target-width="13.700012" target-x="326.3" target-y="367.3"></path></g></g><path d="M 325.00 267.00 L 408.90 266.80 L 411.90 265.70 L 413.80 264.30 L 415.20 262.40 L 416.20 260.20 L 416.50 257.70 L 415.90 254.40 L 415.20 253.00 L 413.80 251.10 L 411.90 249.70 L 409.70 248.70 L 407.20 248.40 L 323.30 248.60 L 320.30 249.70 L 318.40 251.10 L 317.00 253.00 L 316.00 255.20 L 315.70 257.70 L 315.80 259.40 L 316.90 262.40 L 318.40 264.30 L 320.30 265.70 L 321.70 266.40 L 325.00 267.00 Z" fill="#f2f5f4" fill-rule="nonzero" node-id="860" stroke="none" target-height="18.600006" target-width="100.79999" target-x="315.7" target-y="248.4"></path><g node-id="1035"><path d="M 326.00 355.70 L 407.60 355.70 L 411.20 355.10 L 414.20 353.30 L 416.50 350.60 L 417.30 349.00 L 417.90 345.40 L 417.90 285.00 L 417.30 281.40 L 415.50 278.40 L 412.80 276.10 L 411.20 275.30 L 407.60 274.70 L 326.00 274.70 L 322.40 275.30 L 319.40 277.10 L 317.10 279.80 L 316.30 281.40 L 315.70 285.00 L 315.80 347.30 L 317.10 350.60 L 319.30 353.30 L 322.40 355.10 L 326.00 355.70 Z" fill="#f2f5f4" fill-rule="nonzero" group-id="5" node-id="864" stroke="none" target-height="81" target-width="102.19998" target-x="315.7" target-y="274.7"></path><g node-id="1052"><path d="M 341.00 350.00 L 422.60 350.00 L 426.20 349.40 L 429.20 347.60 L 431.50 344.90 L 432.30 343.30 L 432.90 339.70 L 432.90 279.30 L 432.30 275.70 L 430.50 272.70 L 427.80 270.40 L 426.20 269.60 L 422.60 269.00 L 341.00 269.00 L 337.40 269.60 L 334.40 271.40 L 332.10 274.10 L 331.30 275.70 L 330.70 279.30 L 330.80 341.60 L 332.00 344.90 L 334.30 347.60 L 337.30 349.40 L 341.00 350.00 Z" fill="#ffffff" fill-rule="nonzero" group-id="5,22" node-id="868" stroke="#f1f1f3" stroke-linecap="butt" stroke-width="1" target-height="81" target-width="102.19998" target-x="330.7" target-y="269"></path><g node-id="1079"><path d="M 339.90 261.30 L 423.80 261.10 L 426.80 260.00 L 428.70 258.60 L 430.10 256.70 L 431.10 254.50 L 431.40 252.00 L 430.80 248.70 L 430.10 247.30 L 428.70 245.40 L 426.80 244.00 L 424.60 243.00 L 422.10 242.70 L 338.20 242.90 L 335.20 244.00 L 333.30 245.40 L 331.90 247.30 L 330.90 249.50 L 330.60 252.00 L 331.20 255.20 L 331.90 256.70 L 333.30 258.60 L 335.20 260.00 L 336.70 260.70 L 339.90 261.30 Z" fill="#ffffff" fill-rule="nonzero" group-id="5,22,49" node-id="872" stroke="#f1f1f3" stroke-linecap="butt" stroke-width="1" target-height="18.59999" target-width="100.79999" target-x="330.6" target-y="242.7"></path><path d="M 346.40 252.00 L 346.10 253.60 L 345.20 255.00 L 343.80 255.90 L 342.20 256.20 L 340.60 255.90 L 339.20 255.00 L 338.30 253.60 L 338.00 252.00 L 338.30 250.40 L 339.20 249.00 L 340.60 248.10 L 342.20 247.80 L 343.80 248.10 L 345.20 249.00 L 346.10 250.40 L 346.40 252.00 Z" fill="#d57548" fill-rule="nonzero" group-id="5,22,49" node-id="874" stroke="none" target-height="8.400009" target-width="8.399994" target-x="338" target-y="247.8"></path><path d="M 363.10 252.00 L 362.80 253.60 L 361.90 255.00 L 360.50 255.90 L 358.90 256.20 L 357.30 255.90 L 355.90 255.00 L 355.00 253.60 L 354.70 252.00 L 355.00 250.40 L 355.90 249.00 L 357.30 248.10 L 358.90 247.80 L 360.50 248.10 L 361.90 249.00 L 362.80 250.40 L 363.10 252.00 Z" fill="#ffb72f" fill-rule="nonzero" group-id="5,22,49" node-id="876" stroke="none" target-height="8.400009" target-width="8.399994" target-x="354.7" target-y="247.8"></path><path d="M 379.70 252.00 L 379.40 253.60 L 378.50 255.00 L 377.10 255.90 L 375.50 256.20 L 373.90 255.90 L 372.50 255.00 L 371.60 253.60 L 371.30 252.00 L 371.60 250.40 L 372.50 249.00 L 373.90 248.10 L 375.50 247.80 L 377.10 248.10 L 378.50 249.00 L 379.40 250.40 L 379.70 252.00 Z" fill="#aabc95" fill-rule="nonzero" group-id="5,22,49" node-id="878" stroke="none" target-height="8.400009" target-width="8.400024" target-x="371.3" target-y="247.8"></path></g><g node-id="1080"><path d="M 342.90 285.30 L 419.20 285.30" fill="none" group-id="5,22,50" node-id="883" stroke="#e3e9e7" stroke-linecap="round" stroke-width="5" target-height="0" target-width="76.30002" target-x="342.9" target-y="285.3"></path><path d="M 342.90 294.60 L 385.70 294.60" fill="none" group-id="5,22,50" node-id="885" stroke="#e3e9e7" stroke-linecap="round" stroke-width="5" target-height="0" target-width="42.80002" target-x="342.9" target-y="294.6"></path></g></g><g node-id="1053"><path d="M 345.20 327.20 L 357.20 327.20 L 357.20 339.20 L 345.20 339.20 Z" fill="none" group-id="5,23" node-id="891" stroke="#ffb72f" stroke-linecap="butt" stroke-width="3" target-height="12" target-width="12" target-x="345.2" target-y="327.2"></path><path d="M 345.20 339.20 L 345.20 304.10 L 417.70 339.20 Z" fill="none" group-id="5,23" node-id="893" stroke="#aabc95" stroke-linecap="butt" stroke-width="3" target-height="35.100006" target-width="72.5" target-x="345.2" target-y="304.1"></path></g></g><g node-id="1036"><g node-id="1054"><g node-id="1081"><g node-id="1097"><path d="M 305.30 155.70 L 303.30 155.70" fill="none" group-id="6,24,51,67" node-id="905" stroke="#eaa105" stroke-linecap="butt" stroke-width="1" target-height="0" target-width="2" target-x="303.3" target-y="155.7"></path><path d="M 301.30 155.80 L 297.50 156.50 L 294.10 157.50 L 290.90 158.80 L 287.90 160.60 L 284.30 163.40 L 281.20 166.60 L 278.50 170.20 L 276.30 174.20 L 274.60 178.40 L 273.40 182.70 L 272.70 187.20 L 272.60 191.60 L 273.00 195.90 L 273.90 200.20 L 275.40 204.10 L 277.40 207.80" fill="none" group-id="6,24,51,67" node-id="907" stroke="#eaa105" stroke-dasharray="4.1538 2.0769" stroke-linecap="butt" stroke-width="1" target-height="52" target-width="28.699982" target-x="272.6" target-y="155.8"></path><path d="M 278.00 208.70 L 279.20 210.30" fill="none" group-id="6,24,51,67" node-id="909" stroke="#eaa105" stroke-linecap="butt" stroke-width="1" target-height="1.6000061" target-width="1.2000122" target-x="278" target-y="208.7"></path></g></g><path d="M 284.80 210.20 L 284.00 213.00 L 283.10 214.20 L 281.90 215.10 L 279.10 215.90 L 276.30 215.10 L 275.10 214.20 L 273.60 211.70 L 273.40 210.20 L 273.60 208.70 L 275.10 206.20 L 276.30 205.30 L 279.10 204.50 L 281.90 205.30 L 283.10 206.20 L 284.00 207.40 L 284.80 210.20 Z" fill="#eaa105" fill-rule="nonzero" group-id="6,24" node-id="913" stroke="none" target-height="11.399994" target-width="11.399994" target-x="273.4" target-y="204.5"></path></g><g node-id="1055"><g node-id="1082"><g node-id="1098"><path d="M 440.90 290.90 L 442.90 291.30" fill="none" group-id="6,25,52,68" node-id="922" stroke="#aabc95" stroke-linecap="butt" stroke-width="1" target-height="0.3999939" target-width="2" target-x="440.9" target-y="290.9"></path><path d="M 445.00 291.50 L 448.80 291.60 L 452.40 291.30 L 455.80 290.60 L 459.00 289.50 L 463.10 287.40 L 466.80 284.90 L 470.10 281.90 L 473.10 278.40 L 475.50 274.70 L 477.60 270.60 L 479.10 266.40 L 480.20 262.10 L 480.70 257.70 L 480.60 253.40 L 479.90 249.20 L 478.60 245.20" fill="none" group-id="6,25,52,68" node-id="924" stroke="#aabc95" stroke-dasharray="4.1538 2.0769" stroke-linecap="butt" stroke-width="1" target-height="46.40001" target-width="35.700012" target-x="445" target-y="245.2"></path><path d="M 478.20 244.30 L 477.30 242.50" fill="none" group-id="6,25,52,68" node-id="926" stroke="#aabc95" stroke-linecap="butt" stroke-width="1" target-height="1.800003" target-width="0.9000244" target-x="477.3" target-y="242.5"></path></g></g><path d="M 483.10 242.60 L 482.30 245.40 L 481.40 246.60 L 478.90 248.10 L 477.40 248.30 L 474.60 247.50 L 473.40 246.60 L 471.90 244.10 L 471.70 242.60 L 471.90 241.10 L 473.40 238.60 L 474.60 237.70 L 477.40 236.90 L 480.20 237.70 L 481.40 238.60 L 482.90 241.10 L 483.10 242.60 Z" fill="#aabc95" fill-rule="nonzero" group-id="6,25" node-id="930" stroke="none" target-height="11.400009" target-width="11.399994" target-x="471.7" target-y="236.9"></path></g><g node-id="1056"><g node-id="1083"><g node-id="1099"><path d="M 384.90 109.50 L 385.50 107.60" fill="none" group-id="6,26,53,69" node-id="939" stroke="#d7e0dd" stroke-linecap="butt" stroke-width="1" target-height="1.9000015" target-width="0.6000061" target-x="384.9" target-y="107.6"></path><path d="M 385.90 105.60 L 386.40 101.80 L 386.40 98.20 L 386.10 94.80 L 385.30 91.50 L 383.70 87.20 L 381.50 83.30 L 378.80 79.70 L 375.70 76.40 L 372.20 73.60 L 368.40 71.10 L 364.30 69.10 L 360.10 67.70 L 355.90 66.80 L 351.50 66.40 L 347.30 66.60 L 343.20 67.50" fill="none" group-id="6,26,53,69" node-id="941" stroke="#d7e0dd" stroke-dasharray="4.1538 2.0769" stroke-linecap="butt" stroke-width="1" target-height="39.199997" target-width="43.19998" target-x="343.2" target-y="66.4"></path><path d="M 342.20 67.80 L 340.30 68.50" fill="none" group-id="6,26,53,69" node-id="943" stroke="#d7e0dd" stroke-linecap="butt" stroke-width="1" target-height="0.69999695" target-width="1.9000244" target-x="340.3" target-y="67.8"></path></g></g><path d="M 346.10 68.40 L 345.90 69.90 L 344.40 72.40 L 343.20 73.30 L 340.40 74.10 L 338.90 73.90 L 336.40 72.40 L 335.50 71.20 L 334.70 68.40 L 334.90 66.90 L 336.40 64.40 L 337.60 63.50 L 340.40 62.70 L 341.90 62.90 L 344.40 64.40 L 345.90 66.90 L 346.10 68.40 Z" fill="#d7e0dd" fill-rule="nonzero" group-id="6,26" node-id="947" stroke="none" target-height="11.399998" target-width="11.399994" target-x="334.7" target-y="62.7"></path></g></g><g node-id="1037"><g node-id="1057"><path d="M 82.30 112.60 L 104.10 112.60" fill="none" group-id="7,27" node-id="955" stroke="#d7e0dd" stroke-linecap="round" stroke-width="5" target-height="0" target-width="21.799995" target-x="82.3" target-y="112.6"></path><path d="M 82.30 123.70 L 94.50 123.70" fill="none" group-id="7,27" node-id="957" stroke="#d7e0dd" stroke-linecap="round" stroke-width="5" target-height="0" target-width="12.199997" target-x="82.3" target-y="123.7"></path></g><g node-id="1058"><path d="M 276.90 106.00 L 352.00 106.00" fill="none" group-id="7,28" node-id="962" stroke="#d7e0dd" stroke-linecap="round" stroke-width="5" target-height="0" target-width="75.100006" target-x="276.9" target-y="106"></path><path d="M 276.90 116.80 L 304.10 116.80" fill="none" group-id="7,28" node-id="964" stroke="#d7e0dd" stroke-linecap="round" stroke-width="5" target-height="0" target-width="27.200012" target-x="276.9" target-y="116.8"></path></g><g node-id="1059"><path d="M 456.90 317.20 L 479.70 317.20" fill="none" group-id="7,29" node-id="969" stroke="#d7e0dd" stroke-linecap="round" stroke-width="5" target-height="0" target-width="22.800018" target-x="456.9" target-y="317.2"></path><path d="M 446.30 317.20 L 449.30 317.20" fill="none" group-id="7,29" node-id="971" stroke="#d7e0dd" stroke-linecap="round" stroke-width="5" target-height="0" target-width="3" target-x="446.3" target-y="317.2"></path><path d="M 467.90 326.20 L 479.70 326.20" fill="none" group-id="7,29" node-id="973" stroke="#d7e0dd" stroke-linecap="round" stroke-width="5" target-height="0" target-width="11.800018" target-x="467.9" target-y="326.2"></path></g></g><g node-id="1038"><path d="M 251.80 58.10 L 251.80 72.20 L 239.10 87.40 L 292.50 87.40 L 296.50 87.10 L 300.30 86.40 L 303.90 85.10 L 307.30 83.40 L 310.40 81.30 L 313.20 78.80 L 315.70 76.00 L 317.80 72.90 L 319.50 69.50 L 320.80 65.90 L 321.50 62.10 L 321.80 58.10 L 321.50 54.10 L 320.80 50.30 L 319.50 46.70 L 317.80 43.30 L 315.70 40.20 L 313.20 37.40 L 310.40 34.90 L 307.30 32.80 L 303.90 31.10 L 300.30 29.80 L 296.50 29.10 L 292.50 28.80 L 281.00 28.80 L 277.00 29.10 L 273.20 29.90 L 269.60 31.20 L 266.30 32.90 L 263.20 35.00 L 260.40 37.50 L 257.90 40.30 L 255.80 43.40 L 254.10 46.70 L 252.80 50.30 L 252.10 54.10 L 251.80 58.10 Z" fill="#d7e0dd" fill-rule="nonzero" group-id="8" node-id="979" stroke="none" target-height="58.600002" target-width="82.69998" target-x="239.1" target-y="28.8"></path><g node-id="1060"><path d="M 274.40 64.70 L 274.20 66.10 L 272.90 68.40 L 271.80 69.20 L 269.20 69.90 L 266.60 69.20 L 265.50 68.40 L 264.20 66.10 L 264.20 63.30 L 265.50 61.00 L 266.60 60.20 L 269.20 59.50 L 271.80 60.20 L 272.90 61.00 L 274.20 63.30 L 274.40 64.70 Z" fill="#f2f5f4" fill-rule="nonzero" group-id="8,30" node-id="983" stroke="none" target-height="10.400002" target-width="10.199982" target-x="264.2" target-y="59.5"></path><path d="M 292.00 64.70 L 291.80 66.10 L 290.50 68.40 L 289.40 69.20 L 286.80 69.90 L 284.20 69.20 L 283.10 68.40 L 281.80 66.10 L 281.80 63.30 L 283.10 61.00 L 284.20 60.20 L 286.80 59.50 L 289.40 60.20 L 290.50 61.00 L 291.30 62.10 L 292.00 64.70 Z" fill="#f2f5f4" fill-rule="nonzero" group-id="8,30" node-id="985" stroke="none" target-height="10.400002" target-width="10.200012" target-x="281.8" target-y="59.5"></path><path d="M 309.70 64.70 L 309.50 66.10 L 308.20 68.40 L 305.90 69.70 L 304.50 69.90 L 303.10 69.70 L 300.80 68.40 L 299.50 66.10 L 299.50 63.30 L 300.80 61.00 L 303.10 59.70 L 304.50 59.50 L 305.90 59.70 L 308.20 61.00 L 309.50 63.30 L 309.70 64.70 Z" fill="#f2f5f4" fill-rule="nonzero" group-id="8,30" node-id="987" stroke="none" target-height="10.400002" target-width="10.200012" target-x="299.5" target-y="59.5"></path></g></g><g node-id="1039"><g node-id="1061"><path d="M 241.70 435.80 L 241.00 439.10 L 239.20 441.90 L 236.40 443.70 L 233.10 444.40 L 231.40 444.20 L 228.30 443.00 L 225.90 440.60 L 224.70 437.50 L 224.70 434.10 L 225.90 431.00 L 228.30 428.60 L 231.40 427.40 L 234.80 427.40 L 237.90 428.60 L 240.30 431.00 L 241.50 434.10 L 241.70 435.80 Z" fill="#d7e0dd" fill-rule="nonzero" group-id="9,31" node-id="995" stroke="none" target-height="17" target-width="17" target-x="224.7" target-y="427.4"></path><path d="M 438.00 95.40 L 437.80 96.90 L 436.40 99.40 L 433.90 100.80 L 432.40 101.00 L 429.60 100.30 L 428.40 99.40 L 427.00 96.90 L 427.00 93.90 L 428.40 91.40 L 429.60 90.50 L 432.40 89.80 L 433.90 90.00 L 436.40 91.40 L 437.30 92.60 L 438.00 95.40 Z" fill="#d7e0dd" fill-rule="nonzero" group-id="9,31" node-id="997" stroke="none" target-height="11.199997" target-width="11" target-x="427" target-y="89.8"></path><path d="M 48.60 107.50 L 48.30 109.60 L 47.50 111.40 L 46.30 113.00 L 44.70 114.20 L 42.90 115.00 L 40.80 115.30 L 38.70 115.00 L 36.90 114.20 L 35.30 113.00 L 34.10 111.40 L 33.30 109.60 L 33.00 107.50 L 33.30 105.40 L 34.10 103.60 L 35.30 102.00 L 36.90 100.80 L 38.70 100.00 L 40.80 99.70 L 42.90 100.00 L 44.70 100.80 L 46.30 102.00 L 47.50 103.60 L 48.30 105.40 L 48.60 107.50 Z" fill="#d7e0dd" fill-rule="nonzero" group-id="9,31" node-id="999" stroke="none" target-height="15.600006" target-width="15.599998" target-x="33" target-y="99.7"></path><path d="M 92.10 430.60 L 91.90 431.90 L 90.70 434.10 L 88.50 435.30 L 87.20 435.50 L 84.70 434.80 L 83.00 433.10 L 82.50 431.90 L 82.30 430.60 L 83.00 428.10 L 84.70 426.40 L 87.20 425.70 L 88.50 425.90 L 90.70 427.10 L 91.90 429.30 L 92.10 430.60 Z" fill="#d7e0dd" fill-rule="nonzero" group-id="9,31" node-id="1001" stroke="none" target-height="9.799988" target-width="9.799995" target-x="82.3" target-y="425.7"></path></g><g node-id="1062"><path d="M 172.60 417.80 L 172.30 419.10 L 171.60 420.10 L 170.60 420.80 L 169.30 421.10 L 168.00 420.80 L 167.00 420.10 L 166.30 419.10 L 166.00 417.80 L 166.30 416.50 L 167.00 415.50 L 168.00 414.80 L 169.30 414.50 L 170.60 414.80 L 171.60 415.50 L 172.30 416.50 L 172.60 417.80 Z" fill="#aabc95" fill-rule="nonzero" group-id="9,32" node-id="1006" stroke="none" target-height="6.600006" target-width="6.600006" target-x="166" target-y="414.5"></path><path d="M 225.00 47.60 L 224.70 48.90 L 224.00 50.00 L 222.90 50.70 L 221.60 51.00 L 220.30 50.70 L 219.20 50.00 L 218.50 48.90 L 218.20 47.60 L 218.50 46.30 L 219.20 45.20 L 220.30 44.50 L 221.60 44.20 L 222.90 44.50 L 224.00 45.20 L 224.70 46.30 L 225.00 47.60 Z" fill="#aabc95" fill-rule="nonzero" group-id="9,32" node-id="1008" stroke="none" target-height="6.799999" target-width="6.800003" target-x="218.2" target-y="44.2"></path><path d="M 407.60 77.50 L 407.30 78.80 L 406.60 79.90 L 405.50 80.60 L 404.20 80.90 L 402.90 80.60 L 401.80 79.90 L 401.10 78.80 L 400.80 77.50 L 401.10 76.20 L 401.80 75.10 L 402.90 74.40 L 404.20 74.10 L 405.50 74.40 L 406.60 75.10 L 407.30 76.20 L 407.60 77.50 Z" fill="#aabc95" fill-rule="nonzero" group-id="9,32" node-id="1010" stroke="none" target-height="6.800003" target-width="6.8000183" target-x="400.8" target-y="74.1"></path><path d="M 22.60 247.70 L 22.40 249.10 L 21.10 251.40 L 18.80 252.70 L 17.40 252.90 L 14.80 252.20 L 12.90 250.30 L 12.40 249.10 L 12.20 247.70 L 12.90 245.10 L 14.80 243.20 L 17.40 242.50 L 18.80 242.70 L 21.10 244.00 L 22.40 246.30 L 22.60 247.70 Z" fill="#aabc95" fill-rule="nonzero" group-id="9,32" node-id="1012" stroke="none" target-height="10.399994" target-width="10.400001" target-x="12.2" target-y="242.5"></path><path d="M 488.90 340.50 L 488.70 341.60 L 488.10 342.60 L 487.10 343.20 L 486.00 343.40 L 484.90 343.20 L 483.90 342.60 L 483.30 341.60 L 483.10 340.50 L 483.30 339.40 L 483.90 338.40 L 484.90 337.80 L 486.00 337.60 L 487.10 337.80 L 488.10 338.40 L 488.70 339.40 L 488.90 340.50 Z" fill="#aabc95" fill-rule="nonzero" group-id="9,32" node-id="1014" stroke="none" target-height="5.799988" target-width="5.799988" target-x="483.1" target-y="337.6"></path></g><g node-id="1063"><path d="M 120.70 44.30 L 120.00 48.30 L 119.20 50.00 L 116.70 52.90 L 113.40 54.90 L 109.40 55.60 L 105.40 54.90 L 102.10 52.90 L 99.60 50.00 L 98.30 46.40 L 98.30 42.20 L 98.80 40.30 L 100.80 37.00 L 103.70 34.50 L 105.40 33.70 L 109.40 33.00 L 113.40 33.70 L 115.10 34.50 L 118.00 37.00 L 120.00 40.30 L 120.70 44.30 Z" fill="#d7e0dd" fill-rule="nonzero" group-id="9,33" node-id="1019" stroke="none" target-height="22.599998" target-width="22.399994" target-x="98.3" target-y="33"></path><path d="M 110.90 76.10 L 110.70 78.30 L 110.00 80.40 L 109.00 82.40 L 107.60 84.10 L 105.90 85.50 L 103.90 86.50 L 101.80 87.20 L 99.60 87.40 L 97.40 87.20 L 95.30 86.50 L 93.30 85.50 L 91.60 84.10 L 90.20 82.40 L 89.20 80.40 L 88.50 78.30 L 88.30 76.10 L 88.50 73.90 L 89.20 71.80 L 90.20 69.80 L 91.60 68.10 L 93.30 66.70 L 95.30 65.70 L 97.40 65.00 L 99.60 64.80 L 101.80 65.00 L 103.90 65.70 L 105.90 66.70 L 107.60 68.10 L 109.00 69.80 L 110.00 71.80 L 110.70 73.90 L 110.90 76.10 Z" fill="#d7e0dd" fill-rule="nonzero" group-id="9,33" node-id="1021" stroke="none" target-height="22.599998" target-width="22.599998" target-x="88.3" target-y="64.8"></path><path d="M 152.60 62.20 L 151.90 66.20 L 151.10 67.90 L 148.60 70.80 L 145.30 72.80 L 141.30 73.50 L 137.30 72.80 L 135.60 72.00 L 132.70 69.50 L 130.70 66.20 L 130.00 62.20 L 130.70 58.20 L 132.70 54.90 L 135.60 52.40 L 137.30 51.60 L 141.30 50.90 L 145.30 51.60 L 148.60 53.60 L 151.10 56.50 L 151.90 58.20 L 152.60 62.20 Z" fill="#d7e0dd" fill-rule="nonzero" group-id="9,33" node-id="1023" stroke="none" target-height="22.599998" target-width="22.600006" target-x="130" target-y="50.9"></path><path d="M 99.60 76.10 L 109.40 44.30" fill="none" group-id="9,33" node-id="1025" stroke="#d7e0dd" stroke-linecap="round" stroke-width="5" target-height="31.8" target-width="9.800003" target-x="99.6" target-y="44.3"></path><path d="M 141.30 62.20 L 110.90 44.30" fill="none" group-id="9,33" node-id="1027" stroke="#d7e0dd" stroke-linecap="round" stroke-width="5" target-height="17.900002" target-width="30.400002" target-x="110.9" target-y="44.3"></path><path d="M 99.60 76.10 L 141.30 62.20" fill="none" group-id="9,33" node-id="1029" stroke="#d7e0dd" stroke-linecap="round" stroke-width="5" target-height="13.899998" target-width="41.700005" target-x="99.6" target-y="62.2"></path></g></g></svg>